<svg width="10" height="14" viewBox="0 0 10 14" fill="none" xmlns="http://www.w3.org/2000/svg">
<path d="M9.41669 3.48447C9.36686 3.2977 9.26566 3.09869 9.1908 2.92445C8.29497 0.771555 6.3376 0 4.75712 0C2.64137 0 0.311109 1.41871 0 4.34299V4.94044C0 4.96537 0.00859309 5.18935 0.0207992 5.30138C0.1952 6.69503 1.29489 8.17616 2.11618 9.56981C2.99977 11.063 3.91663 12.5318 4.82499 14C5.3851 13.0419 5.9432 12.0711 6.49055 11.1378C6.63972 10.8639 6.81289 10.5902 6.96223 10.3287C7.06176 10.1547 7.25192 9.98058 7.33879 9.81861C8.22235 8.20093 9.64454 6.57075 9.64454 4.96534V4.30582C9.64457 4.13178 9.42883 3.522 9.41669 3.48447ZM4.79586 6.48365C4.17393 6.48365 3.49319 6.17267 3.15718 5.31385C3.10712 5.17714 3.11115 4.90317 3.11115 4.87808V4.4923C3.11115 3.39746 4.04077 2.89958 4.8495 2.89958C5.84512 2.89958 6.61515 3.69614 6.61515 4.69176C6.61515 5.68736 5.79148 6.48365 4.79586 6.48365Z" fill="white"/>
</svg>
