<svg width="29" height="27" viewBox="0 0 29 27" fill="none" xmlns="http://www.w3.org/2000/svg">
<path d="M6.74581 12.6051H19.6727C19.9975 12.6051 20.2603 12.3423 20.2603 12.0175C20.2603 11.6927 19.9975 11.4299 19.6727 11.4299H6.74581C6.42102 11.4299 6.1582 11.6927 6.1582 12.0175C6.1582 12.3423 6.42107 12.6051 6.74581 12.6051Z" fill="#FD5086"/>
<path d="M13.7968 18.4803H6.74581C6.42102 18.4803 6.1582 18.7432 6.1582 19.0679C6.1582 19.3927 6.42102 19.6556 6.74581 19.6556H13.7968C14.1216 19.6556 14.3844 19.3927 14.3844 19.0679C14.3844 18.7432 14.1216 18.4803 13.7968 18.4803Z" fill="#FD5086"/>
<path d="M26.2379 7.90452C26.2039 7.90452 26.1709 7.91306 26.1369 7.91466V3.20387C26.1369 1.90764 25.0823 0.853516 23.7866 0.853516H2.63356C1.33788 0.853516 0.283203 1.90764 0.283203 3.20387V24.3569C0.283203 25.6531 1.33788 26.7073 2.63356 26.7073H23.7866C25.0823 26.7073 26.1369 25.6532 26.1369 24.3569V13.4358L27.8285 11.7445C27.8285 11.7445 27.8285 11.7445 27.8285 11.744C28.2474 11.3251 28.4872 10.7455 28.4872 10.1539C28.4872 8.91331 27.4785 7.90452 26.2379 7.90452ZM7.92181 3.20387C8.24633 3.20387 8.50942 3.46691 8.50942 3.79147C8.50942 4.11598 8.24633 4.37908 7.92181 4.37908C7.5973 4.37908 7.33421 4.11593 7.33421 3.79147C7.33421 3.46691 7.5973 3.20387 7.92181 3.20387ZM5.57146 3.20387C5.89597 3.20387 6.15906 3.46691 6.15906 3.79147C6.15906 4.11598 5.89597 4.37908 5.57146 4.37908C5.24695 4.37908 4.98386 4.11598 4.98386 3.79147C4.98386 3.46691 5.24695 3.20387 5.57146 3.20387ZM3.22111 3.20387C3.54562 3.20387 3.80871 3.46691 3.80871 3.79147C3.80871 4.11598 3.54562 4.37908 3.22111 4.37908C2.89659 4.37908 2.6335 4.11598 2.6335 3.79147C2.63356 3.46691 2.89665 3.20387 3.22111 3.20387ZM23.7866 24.3569H2.63356V6.72937H23.7866V9.42385L18.254 14.9555H6.74661C6.42182 14.9555 6.15901 15.2183 6.15901 15.5431C6.15901 15.8679 6.42182 16.1307 6.74661 16.1307H17.3113L16.747 18.9533C16.708 19.1461 16.7688 19.3453 16.9077 19.4841C17.019 19.5954 17.1694 19.6562 17.3232 19.6562C17.3611 19.6562 17.4001 19.6522 17.4379 19.6448L20.3747 19.0572C20.4895 19.0342 20.5939 18.9786 20.6754 18.8965L23.7866 15.7858V24.3569ZM25.306 12.6051L23.7863 11.0855L24.6172 10.2546L26.1369 11.7744L25.306 12.6051Z" fill="#FD5086"/>
</svg>
