<svg width="21" height="26" viewBox="0 0 21 26" fill="none" xmlns="http://www.w3.org/2000/svg">
<path d="M18.9088 0H1.18159C0.52884 0 0 0.529393 0 1.18215V24.8179C0 25.4706 0.529393 26 1.18159 26H18.9088C19.5615 26 20.0904 25.4706 20.0904 24.8179V1.18215C20.0904 0.529393 19.5615 0 18.9088 0ZM17.7266 2.36318V5.90851H2.36318V2.36318H17.7266ZM2.36318 23.6368V8.27225H17.7266V23.6352H2.36318V23.6368Z" fill="#FD5086"/>
<path d="M6.58907 9.31763H4.13572C3.80934 9.31763 3.54492 9.5826 3.54492 9.90842V12.3634C3.54492 12.6898 3.80989 12.9542 4.13572 12.9542H6.58907C6.91545 12.9542 7.17987 12.6893 7.17987 12.3634V9.90842C7.18042 9.58149 6.91655 9.31763 6.58907 9.31763Z" fill="#FD5086"/>
<path d="M11.2702 9.31763H8.81736C8.49098 9.31763 8.22656 9.5826 8.22656 9.90842V12.3634C8.22656 12.6898 8.49098 12.9542 8.81736 12.9542H11.2702C11.5965 12.9542 11.861 12.6893 11.861 12.3634V9.90842C11.8615 9.58149 11.5965 9.31763 11.2702 9.31763Z" fill="#FD5086"/>
<path d="M15.9538 9.31763H13.5004C13.174 9.31763 12.9102 9.5826 12.9102 9.90842V12.3634C12.9102 12.6898 13.1746 12.9542 13.5004 12.9542H15.9538C16.2801 12.9542 16.5445 12.6893 16.5445 12.3634V9.90842C16.5445 9.58149 16.2801 9.31763 15.9538 9.31763Z" fill="#FD5086"/>
<path d="M6.58907 14.1364H4.13572C3.80934 14.1364 3.54492 14.4008 3.54492 14.7266V17.1816C3.54492 17.508 3.80989 17.7718 4.13572 17.7718H6.58907C6.91545 17.7718 7.17987 17.5074 7.17987 17.1816V14.7266C7.18042 14.3997 6.91655 14.1364 6.58907 14.1364Z" fill="#FD5086"/>
<path d="M11.2702 14.1364H8.81736C8.49098 14.1364 8.22656 14.4008 8.22656 14.7266V17.1816C8.22656 17.508 8.49098 17.7718 8.81736 17.7718H11.2702C11.5965 17.7718 11.861 17.5074 11.861 17.1816V14.7266C11.8615 14.3997 11.5965 14.1364 11.2702 14.1364Z" fill="#FD5086"/>
<path d="M6.58907 18.9551H4.13572C3.80934 18.9551 3.54492 19.2195 3.54492 19.5448V21.9998C3.54492 22.3273 3.80989 22.5906 4.13572 22.5906H6.58907C6.91545 22.5906 7.17987 22.3256 7.17987 21.9998V19.5448C7.18042 19.2184 6.91655 18.9551 6.58907 18.9551Z" fill="#FD5086"/>
<path d="M11.2702 18.9551H8.81736C8.49098 18.9551 8.22656 19.2195 8.22656 19.5448V21.9998C8.22656 22.3273 8.49098 22.5906 8.81736 22.5906H11.2702C11.5965 22.5906 11.861 22.3256 11.861 21.9998V19.5448C11.8615 19.2184 11.5965 18.9551 11.2702 18.9551Z" fill="#FD5086"/>
<path d="M15.9538 14.1364H13.5004C13.174 14.1364 12.9102 14.4008 12.9102 14.7266V21.9998C12.9102 22.3273 13.1746 22.5906 13.5004 22.5906H15.9538C16.2801 22.5906 16.5445 22.3256 16.5445 21.9998V14.7266C16.5445 14.3997 16.2801 14.1364 15.9538 14.1364Z" fill="#FD5086"/>
</svg>
