<svg width="24" height="19" viewBox="0 0 24 19" fill="none" xmlns="http://www.w3.org/2000/svg">
<path d="M12.0827 5.81647C9.51697 5.81647 7.42969 7.90375 7.42969 10.4695C7.42969 13.0353 9.51697 15.1226 12.0827 15.1226C14.6485 15.1226 16.7358 13.0353 16.7358 10.4695C16.7358 7.90375 14.6485 5.81647 12.0827 5.81647Z" fill="#FD5086"/>
<path d="M21.8537 3.87755H18.5485L16.9974 0H7.1663L5.61528 3.87755H5.10228V1.93878H2.77575V3.87755H2.31006C1.28367 3.87755 0.449219 4.712 0.449219 5.73839V17.126C0.449219 18.1593 1.28987 19 2.32324 19H21.8405C22.8739 19 23.7145 18.1593 23.7145 17.126V5.73839C23.7145 4.712 22.8801 3.87755 21.8537 3.87755ZM4.32677 3.87755H3.55126V2.71429H4.32677V3.87755ZM12.0819 17.449C8.2334 17.449 5.10228 14.3179 5.10228 10.4694C5.10228 6.62092 8.2334 3.4898 12.0819 3.4898C15.9303 3.4898 19.0615 6.62092 19.0615 10.4694C19.0615 14.3179 15.9303 17.449 12.0819 17.449ZM20.6125 8.53061C19.7571 8.53061 19.0615 7.83498 19.0615 6.97959C19.0615 6.1242 19.7571 5.42857 20.6125 5.42857C21.4679 5.42857 22.1635 6.1242 22.1635 6.97959C22.1635 7.83498 21.4679 8.53061 20.6125 8.53061Z" fill="#FD5086"/>
</svg>
