<svg width="29" height="23" viewBox="0 0 29 23" fill="none" xmlns="http://www.w3.org/2000/svg">
<path d="M14.0819 7.04077C10.9759 7.04077 8.44922 9.56749 8.44922 12.6734C8.44922 15.7794 10.9759 18.3061 14.0819 18.3061C17.1878 18.3061 19.7145 15.7794 19.7145 12.6734C19.7145 9.56749 17.1878 7.04077 14.0819 7.04077Z" fill="white"/>
<path d="M25.9107 4.69388H21.9096L20.0321 0H8.1312L6.25365 4.69388H5.63265V2.34694H2.81633V4.69388H2.25259C1.01012 4.69388 0 5.704 0 6.94647V20.7314C0 21.9824 1.01763 23 2.26855 23H25.8947C27.1456 23 28.1633 21.9824 28.1633 20.7314V6.94647C28.1633 5.704 27.1531 4.69388 25.9107 4.69388ZM4.69388 4.69388H3.7551V3.28571H4.69388V4.69388ZM14.0816 21.1224C9.42296 21.1224 5.63265 17.3321 5.63265 12.6735C5.63265 8.0148 9.42296 4.22449 14.0816 4.22449C18.7403 4.22449 22.5306 8.0148 22.5306 12.6735C22.5306 17.3321 18.7403 21.1224 14.0816 21.1224ZM24.4082 10.3265C23.3727 10.3265 22.5306 9.48445 22.5306 8.44898C22.5306 7.41351 23.3727 6.57143 24.4082 6.57143C25.4436 6.57143 26.2857 7.41351 26.2857 8.44898C26.2857 9.48445 25.4436 10.3265 24.4082 10.3265Z" fill="white"/>
</svg>
