<svg width="14" height="14" viewBox="0 0 14 14" fill="none" xmlns="http://www.w3.org/2000/svg">
<path d="M2.46094 1.64062V14H0V1.64062H2.46094ZM1.64062 9.02344V8.20312H0.820312V9.02344H1.64062ZM0.820312 9.84375V10.6641H1.64062V9.84375H0.820312ZM1.64062 7.38281V6.5625H0.820312V7.38281H1.64062ZM1.64062 5.74219V4.92188H0.820312V5.74219H1.64062ZM1.64062 4.10156V3.28125H0.820312V4.10156H1.64062Z" fill="white"/>
<path d="M11.5391 1.64062H14V14H11.5391V1.64062ZM12.3594 4.92188V5.74219H13.1797V4.92188H12.3594ZM13.1797 4.10156V3.28125H12.3594V4.10156H13.1797ZM12.3594 6.5625V7.38281H13.1797V6.5625H12.3594ZM12.3594 8.20312V9.02344H13.1797V8.20312H12.3594ZM12.3594 9.84375V10.6641H13.1797V9.84375H12.3594Z" fill="white"/>
<path d="M5.74219 2.46094H8.25781V3.25391H5.74219V2.46094Z" fill="white"/>
<path d="M5.74219 8.99609H8.25781V9.81641H5.74219V8.99609Z" fill="white"/>
<path d="M5.74219 5.74219H8.25781V6.53516H5.74219V5.74219Z" fill="white"/>
<path d="M5.74219 10.6367H6.58984V14H5.74219V10.6367Z" fill="white"/>
<path d="M7.41016 10.6367H8.25781V14H7.41016V10.6367Z" fill="white"/>
<path d="M3.28125 0H10.7188V14H9.07812V8.17578H4.92188V14H3.28125V0ZM9.07812 1.64062H4.92188V4.07422H9.07812V1.64062ZM9.07812 7.35547V4.92188H4.92188V7.35547H9.07812Z" fill="white"/>
</svg>
