<svg width="28" height="26" viewBox="0 0 28 26" fill="none" xmlns="http://www.w3.org/2000/svg">
<path d="M20.9241 22.3654L16.2933 19.2782C16.0862 19.1414 15.8087 19.1865 15.6555 19.3817L14.3071 21.1152C13.8701 21.6847 13.0814 21.8473 12.4549 21.4969L12.2056 21.36C11.3062 20.8694 10.1866 20.259 7.96389 18.0363C5.74122 15.8136 5.13034 14.694 4.64016 13.7941L4.50278 13.5448C4.1525 12.9184 4.31505 12.1299 4.8845 11.6931L6.61752 10.3443C6.81297 10.1911 6.85805 9.91353 6.72105 9.70638L3.63431 5.07509C3.49392 4.86494 3.21341 4.80172 2.99644 4.93132L1.05884 6.09319C0.643146 6.33581 0.337413 6.72982 0.20561 7.19274C-0.430757 9.51013 0.104557 13.5678 6.26768 19.7315C12.4308 25.8952 16.4876 26.4314 18.8069 25.7945C19.2699 25.6626 19.6639 25.3567 19.9065 24.9408L21.0679 23.0032C21.1978 22.7864 21.1345 22.5057 20.9241 22.3654Z" fill="#FD5086"/>
<path d="M27.3931 0.0781539C27.3423 0.0273863 27.2732 -0.000788197 27.2014 1.67876e-05H6.64287C6.57107 -0.000788197 6.50195 0.0273863 6.45118 0.0781539C6.40041 0.128922 6.37224 0.198043 6.37304 0.269848V7.41285L7.53882 9.16154C7.95929 9.79683 7.8211 10.6485 7.22139 11.1183L5.48987 12.4671C5.30451 12.6077 5.25063 12.8632 5.36327 13.0667L5.50457 13.3243C5.95509 14.1812 6.50463 14.9822 7.14191 15.7109H27.2014C27.3486 15.712 27.4691 15.5941 27.4713 15.4469V0.269848C27.4721 0.198043 27.4439 0.128922 27.3931 0.0781539ZM13.4527 9.00156V8.9991L8.42645 14.3841C8.24162 14.5823 7.93111 14.5931 7.73293 14.4084C7.53469 14.2236 7.52385 13.913 7.70862 13.7149L12.7349 8.33235C12.9197 8.13411 13.2302 8.12327 13.4284 8.30804C13.6266 8.49287 13.6375 8.80338 13.4527 9.00156ZM16.9221 8.61496C16.5685 8.61657 16.224 8.5029 15.9408 8.29114L7.74001 2.07253C7.52406 1.90804 7.48231 1.59963 7.64679 1.38362C7.81128 1.16767 8.1197 1.12592 8.3357 1.29041L16.5331 7.50902C16.7651 7.67758 17.0793 7.67758 17.3113 7.50902L25.5111 1.29041C25.7271 1.12662 26.0349 1.16891 26.1988 1.38486C26.3626 1.60081 26.3203 1.90869 26.1043 2.07253L17.9035 8.29114C17.6203 8.5029 17.2758 8.61657 16.9221 8.61496ZM26.1426 14.4082C26.0474 14.497 25.9208 14.5444 25.7907 14.5399C25.6606 14.5354 25.5376 14.4794 25.4488 14.3841L20.423 8.99915C20.2523 8.79903 20.2698 8.49984 20.4626 8.32098C20.6554 8.14206 20.9551 8.1471 21.1418 8.33235L26.1666 13.7149C26.3514 13.9129 26.3406 14.2233 26.1426 14.4082Z" fill="#FD5086"/>
</svg>
