<svg width="27" height="27" viewBox="0 0 27 27" fill="none" xmlns="http://www.w3.org/2000/svg">
<path d="M22.8722 4.63969C20.4306 2.19815 17.1843 0.853516 13.7315 0.853516C10.2787 0.853516 7.03239 2.19815 4.59086 4.63969C2.14933 7.08122 0.804688 10.3275 0.804688 13.7803C0.804688 17.2332 2.14933 20.4795 4.59086 22.921C7.03239 25.3625 10.2787 26.7072 13.7315 26.7072C17.1843 26.7072 20.4306 25.3625 22.8722 22.921C25.3137 20.4795 26.6583 17.2332 26.6583 13.7803C26.6583 10.3275 25.3137 7.08122 22.8722 4.63969ZM13.7315 24.6874C7.71743 24.6874 2.8245 19.7944 2.8245 13.7803C2.8245 7.76626 7.71743 2.87333 13.7315 2.87333C19.7456 2.87333 24.6385 7.76626 24.6385 13.7803C24.6385 19.7944 19.7456 24.6874 13.7315 24.6874ZM14.7414 12.7695H19.286V14.7893H14.7414V19.3339H12.7216V14.7893H8.17702V12.7695H12.7216V8.22486H14.7414V12.7695Z" fill="#FD5086"/>
</svg>
