<svg width="30" height="29" viewBox="0 0 30 29" fill="none" xmlns="http://www.w3.org/2000/svg">
<path d="M24.7286 11.4913L30 8.48966L15.0003 0L0 8.48966L5.27141 11.4913L0 14.4744L5.27141 17.4761L0 20.4592L15.0003 29L30 20.4592L24.7286 17.4761L30 14.4744L24.7286 11.4913ZM15.0003 1.25136L27.7939 8.49238L15.0003 15.7775L2.20607 8.49238L15.0003 1.25136ZM6.37363 12.1186L15.0003 17.0305L23.6269 12.1186L27.7939 14.4771L15.0003 21.7622L2.20607 14.4771L6.37363 12.1186ZM27.7939 20.4619L15.0003 27.747L2.20607 20.4619L6.37363 18.1034L15.0003 23.0152L23.6269 18.1034L27.7939 20.4619Z" fill="#FD5086"/>
</svg>
