<svg width="186" height="186" viewBox="0 0 186 186" fill="none" xmlns="http://www.w3.org/2000/svg">
<circle opacity="0.2" cx="93" cy="93" r="93" fill="white"/>
<path d="M76.6484 98.291C76.6484 98.6816 76.5801 99.0039 76.4434 99.2578C76.3262 99.4922 76.1895 99.7656 76.0332 100.078C75.9941 100.059 75.9453 100.049 75.8867 100.049C75.7695 100.049 75.6621 100.078 75.5645 100.137C75.4668 100.195 75.3691 100.244 75.2715 100.283C74.7051 100.908 74.1191 101.514 73.5137 102.1C72.9277 102.686 72.2734 103.203 71.5508 103.652C71.3555 103.77 71.1602 103.887 70.9648 104.004C70.7695 104.102 70.5645 104.199 70.3496 104.297C70.2715 104.336 70.1934 104.375 70.1152 104.414C70.0566 104.434 69.998 104.463 69.9395 104.502C69.8027 104.58 69.6562 104.707 69.5 104.883C69.3633 105.059 69.1973 105.234 69.002 105.41C68.8262 105.605 68.6309 105.762 68.416 105.879C68.2012 106.016 67.9668 106.074 67.7129 106.055C67.5566 106.152 67.4199 106.279 67.3027 106.436C67.1855 106.592 67.0488 106.748 66.8926 106.904C66.0527 107.197 65.2812 107.578 64.5781 108.047C63.8945 108.535 63.1816 109.004 62.4395 109.453C61.9902 109.746 61.541 109.98 61.0918 110.156C60.9941 110.195 60.877 110.225 60.7402 110.244C60.623 110.264 60.4961 110.293 60.3594 110.332C59.7148 110.488 59.0605 110.615 58.3965 110.713C57.752 110.811 57.0977 110.859 56.4336 110.859C55.6133 110.859 54.8223 110.762 54.0605 110.566C54.0605 110.508 54.041 110.469 54.002 110.449C53.9629 110.43 53.9141 110.41 53.8555 110.391C53.8164 110.371 53.7773 110.342 53.7383 110.303C53.6992 110.283 53.6992 110.234 53.7383 110.156C53.3086 110.117 52.9277 110.01 52.5957 109.834C52.2832 109.658 52.0781 109.346 51.9805 108.896C51.9219 108.936 51.873 108.984 51.834 109.043C51.7949 109.102 51.7266 109.121 51.6289 109.102C51.3555 108.711 51.0527 108.35 50.7207 108.018C50.3887 107.686 50.1445 107.285 49.9883 106.816C49.9492 106.719 49.9199 106.621 49.9004 106.523C49.9004 106.445 49.8906 106.357 49.8711 106.26C49.7734 105.986 49.5977 105.85 49.3438 105.85C49.3828 105.771 49.4023 105.674 49.4023 105.557C49.4023 105.498 49.3926 105.439 49.373 105.381C49.373 105.322 49.373 105.264 49.373 105.205C49.373 105.107 49.4023 105.01 49.4609 104.912C49.2656 104.463 49.1289 104.023 49.0508 103.594C48.9727 103.145 48.9336 102.686 48.9336 102.217C48.9336 101.611 48.9629 101.016 49.0215 100.43C49.0801 99.8242 49.1094 99.2188 49.1094 98.6133C49.2266 98.3789 49.3145 98.1055 49.373 97.793C49.4512 97.4805 49.5781 97.2266 49.7539 97.0312C49.7344 96.9141 49.6953 96.8555 49.6367 96.8555C49.5781 96.8359 49.5488 96.7773 49.5488 96.6797C49.5488 96.3281 49.6172 95.9473 49.7539 95.5371C49.8906 95.127 49.959 94.707 49.959 94.2773C50.1348 94.1797 50.2422 94.0332 50.2812 93.8379C50.3398 93.6426 50.4473 93.4863 50.6035 93.3691V93.2227C50.6035 92.9297 50.6328 92.6367 50.6914 92.3438C50.7695 92.0508 50.8379 91.7676 50.8965 91.4941C50.9746 91.2012 51.0332 90.918 51.0723 90.6445C51.1309 90.3516 51.1504 90.0684 51.1309 89.7949C51.1699 89.7363 51.2188 89.6289 51.2773 89.4727C51.3555 89.2969 51.4238 89.1211 51.4824 88.9453C51.5605 88.75 51.6191 88.5645 51.6582 88.3887C51.7168 88.2129 51.7461 88.0859 51.7461 88.0078C51.7461 87.8906 51.7266 87.7832 51.6875 87.6855C51.6484 87.5879 51.6289 87.4805 51.6289 87.3633C51.6289 87.2656 51.6582 87.1289 51.7168 86.9531C51.7754 86.7578 51.8242 86.6016 51.8633 86.4844C51.9414 86.1523 52.0098 85.8105 52.0684 85.459C52.1465 85.0879 52.2148 84.7363 52.2734 84.4043C52.4492 83.3301 52.5762 82.2559 52.6543 81.1816C52.7324 80.0879 52.7812 78.9941 52.8008 77.9004C53.0742 77.7441 53.3574 77.5977 53.6504 77.4609C53.9629 77.3242 54.2852 77.2559 54.6172 77.2559C54.7148 77.2559 54.8125 77.2656 54.9102 77.2852C55.0078 77.3047 55.1055 77.334 55.2031 77.373C55.3008 77.7637 55.457 78.0762 55.6719 78.3105C55.8867 78.5449 56.082 78.8281 56.2578 79.1602C56.1406 79.4727 56.0625 79.7949 56.0234 80.127L55.9355 81.123C55.916 81.4551 55.877 81.7871 55.8184 82.1191C55.7598 82.4316 55.6621 82.7344 55.5254 83.0273C55.5645 83.125 55.584 83.2227 55.584 83.3203V83.6133C55.584 83.8867 55.5547 84.1504 55.4961 84.4043C55.457 84.6582 55.4082 84.9219 55.3496 85.1953C55.291 85.4492 55.2422 85.7031 55.2031 85.957C55.1641 86.2109 55.1641 86.4648 55.2031 86.7188C55.1445 86.8164 55.0859 86.8945 55.0273 86.9531C54.9688 86.9922 54.9297 87.0605 54.9102 87.1582L54.8516 87.7148C54.8125 87.9297 54.7734 88.1445 54.7344 88.3594C54.7148 88.5547 54.6855 88.7598 54.6465 88.9746C54.5098 89.5605 54.3535 90.1465 54.1777 90.7324C54.0215 91.3184 53.9434 91.9238 53.9434 92.5488V92.7246C53.7676 92.998 53.6309 93.3398 53.5332 93.75C53.4355 94.1406 53.4062 94.502 53.4453 94.834C53.2305 95.4004 53.0254 95.957 52.8301 96.5039C52.6348 97.0508 52.5371 97.6172 52.5371 98.2031C52.5371 98.3008 52.5371 98.4082 52.5371 98.5254C52.5566 98.623 52.5762 98.7207 52.5957 98.8184C52.4395 99.209 52.3418 99.6094 52.3027 100.02C52.2637 100.41 52.2441 100.801 52.2441 101.191C52.2441 101.465 52.2539 101.787 52.2734 102.158C52.3125 102.51 52.3613 102.881 52.4199 103.271C52.498 103.643 52.5859 104.004 52.6836 104.355C52.7812 104.707 52.8887 104.99 53.0059 105.205C53.4551 105.928 54.041 106.494 54.7637 106.904C55.5059 107.334 56.2871 107.607 57.1074 107.725C57.4395 107.607 57.7031 107.539 57.8984 107.52C58.1133 107.5 58.4062 107.5 58.7773 107.52C59.0898 107.363 59.4023 107.246 59.7148 107.168C60.0469 107.09 60.3789 107.002 60.7109 106.904C60.8086 106.865 60.9062 106.826 61.0039 106.787C61.1211 106.748 61.2188 106.709 61.2969 106.67C61.3945 106.631 61.502 106.543 61.6191 106.406C61.7363 106.27 61.8438 106.152 61.9414 106.055C62.3516 105.938 62.7422 105.771 63.1133 105.557C63.4844 105.361 63.8457 105.156 64.1973 104.941L65.2812 104.297C65.6523 104.082 66.043 103.896 66.4531 103.74C66.6094 103.682 66.6973 103.604 66.7168 103.506C66.7559 103.389 66.8145 103.252 66.8926 103.096C66.9316 103.135 66.9902 103.154 67.0684 103.154C67.3027 103.154 67.4688 103.086 67.5664 102.949C67.6641 102.793 67.7812 102.637 67.918 102.48C68.1719 102.441 68.416 102.373 68.6504 102.275C68.8848 102.158 69.0605 101.982 69.1777 101.748C69.666 101.65 70.0957 101.475 70.4668 101.221C70.8379 100.967 71.1992 100.693 71.5508 100.4C71.9023 100.088 72.2539 99.7949 72.6055 99.5215C72.957 99.2285 73.3574 98.9941 73.8066 98.8184C73.8652 98.7207 73.9043 98.6328 73.9238 98.5547C73.9434 98.4766 73.9727 98.3887 74.0117 98.291C74.3438 98.252 74.6074 98.1641 74.8027 98.0273C74.998 97.8711 75.2227 97.7148 75.4766 97.5586C76.0234 97.6172 76.4141 97.8613 76.6484 98.291ZM92.293 88.0371C92.1758 88.2129 92.1074 88.4082 92.0879 88.623C92.0684 88.8379 92.0586 89.0332 92.0586 89.209C92.0586 89.4434 92.0586 89.6777 92.0586 89.9121C92.0781 90.127 92.0879 90.3418 92.0879 90.5566V90.9961C92.0488 91.1328 91.9902 91.2695 91.9121 91.4062C91.834 91.543 91.7754 91.6797 91.7363 91.8164C91.4629 92.5391 91.3262 93.2617 91.3262 93.9844V94.043C91.2285 94.2773 91.1309 94.4922 91.0332 94.6875C90.9551 94.8828 90.877 95.0781 90.7988 95.2734C90.7207 95.4492 90.6621 95.6445 90.623 95.8594C90.584 96.0547 90.5742 96.2891 90.5938 96.5625C90.3203 97.2461 89.959 97.8711 89.5098 98.4375C89.0605 98.9844 88.6211 99.5508 88.1914 100.137C87.7812 100.293 87.4004 100.498 87.0488 100.752C86.7168 101.006 86.3945 101.289 86.082 101.602C85.4766 101.797 84.8809 102.021 84.2949 102.275C83.709 102.529 83.1816 102.871 82.7129 103.301C82.3418 103.34 81.9707 103.398 81.5996 103.477C81.2285 103.555 80.8672 103.672 80.5156 103.828H80.1641C79.9883 103.828 79.8613 103.789 79.7832 103.711C79.5293 103.848 79.2656 103.945 78.9922 104.004C78.7188 104.043 78.4453 104.062 78.1719 104.062C77.8203 104.062 77.4688 104.043 77.1172 104.004C76.7852 103.945 76.4434 103.887 76.0918 103.828C75.8965 103.555 75.623 103.35 75.2715 103.213C74.9199 103.057 74.6074 102.91 74.334 102.773C73.7676 101.992 73.3574 101.24 73.1035 100.518C72.8496 99.7754 72.5859 98.9453 72.3125 98.0273C72.3516 97.7539 72.4199 97.4902 72.5176 97.2363C72.6152 96.9629 72.6543 96.6699 72.6348 96.3574C72.9863 95.3418 73.4453 94.4238 74.0117 93.6035C74.5977 92.7637 75.2617 91.9629 76.0039 91.2012C76.0039 91.084 76.0234 90.9863 76.0625 90.9082C76.1211 90.8301 76.1309 90.7129 76.0918 90.5566C76.1113 90.5762 76.1504 90.5859 76.209 90.5859C76.3652 90.5859 76.4629 90.5469 76.502 90.4688C76.541 90.3711 76.5508 90.2637 76.5312 90.1465C77.2344 89.6973 77.8691 89.1797 78.4355 88.5938C79.0215 88.0078 79.6855 87.5195 80.4277 87.1289C80.4863 86.9531 80.584 86.8066 80.7207 86.6895C80.8574 86.5723 80.9648 86.4355 81.043 86.2793C81.668 86.1035 82.2344 85.8398 82.7422 85.4883C83.25 85.1367 83.7871 84.8242 84.3535 84.5508C84.666 84.375 84.959 84.2578 85.2324 84.1992C85.5254 84.1211 85.8379 84.043 86.1699 83.9648C86.2871 83.9258 86.3945 83.8965 86.4922 83.877C86.5898 83.8574 86.6973 83.8477 86.8145 83.8477C87.166 83.8477 87.5078 83.916 87.8398 84.0527C88.1719 84.1699 88.5137 84.2285 88.8652 84.2285C88.9629 84.2285 89.041 84.2285 89.0996 84.2285C89.1777 84.209 89.2559 84.1895 89.334 84.1699C89.666 84.5801 90.0859 84.8926 90.5938 85.1074C90.7109 85.4004 90.8477 85.6543 91.0039 85.8691C91.1797 86.084 91.3555 86.2988 91.5312 86.5137C91.707 86.709 91.8633 86.9336 92 87.1875C92.1562 87.4219 92.2539 87.7051 92.293 88.0371ZM89.3633 89.5605C89.3633 89.4629 89.3535 89.375 89.334 89.2969C89.1387 89.2383 88.9531 89.1602 88.7773 89.0625C88.6016 88.9648 88.4062 88.916 88.1914 88.916C88.0547 88.916 87.918 88.9453 87.7812 89.0039C87.7617 88.8672 87.7031 88.7695 87.6055 88.7109C87.5273 88.6523 87.4297 88.6035 87.3125 88.5645C87.2148 88.5059 87.1074 88.4668 86.9902 88.4473C86.8926 88.4082 86.8047 88.3496 86.7266 88.2715C86.668 88.1152 86.5996 87.959 86.5215 87.8027C86.4629 87.627 86.3457 87.5 86.1699 87.4219C85.9941 87.5977 85.7891 87.7441 85.5547 87.8613C85.3203 87.959 85.0762 88.0566 84.8223 88.1543C84.5879 88.252 84.3535 88.3691 84.1191 88.5059C83.9043 88.6426 83.7188 88.8086 83.5625 89.0039H83.0352C82.918 89.2188 82.752 89.3848 82.5371 89.502C82.3223 89.5996 82.1367 89.7461 81.9805 89.9414C81.668 90.0977 81.375 90.293 81.1016 90.5273C80.8477 90.7422 80.5938 90.9766 80.3398 91.2305C80.0859 91.4648 79.832 91.709 79.5781 91.9629C79.3438 92.2168 79.0898 92.4512 78.8164 92.666C78.5625 93.2129 78.2793 93.6914 77.9668 94.1016C77.6738 94.4922 77.3906 94.8926 77.1172 95.3027C76.8633 95.7129 76.6387 96.1621 76.4434 96.6504C76.2676 97.1191 76.1797 97.7051 76.1797 98.4082V98.7012C76.1797 98.7988 76.1895 98.8965 76.209 98.9941C76.4629 99.2676 76.668 99.5605 76.8242 99.873C77 100.186 77.2832 100.41 77.6738 100.547C78.0645 100.703 78.4746 100.771 78.9043 100.752C79.3535 100.732 79.7832 100.781 80.1934 100.898C81.1309 100.723 82.0293 100.439 82.8887 100.049C83.7676 99.6387 84.5977 99.1504 85.3789 98.584C85.4961 98.4863 85.6328 98.3887 85.7891 98.291C85.9453 98.1738 86.0723 98.0566 86.1699 97.9395C86.2676 97.8418 86.3457 97.7344 86.4043 97.6172C86.4824 97.5 86.5605 97.3926 86.6387 97.2949C86.7949 97.041 86.9707 96.7871 87.166 96.5332C87.3613 96.2793 87.5664 96.0449 87.7812 95.8301C87.8789 95.4004 88.0059 94.9902 88.1621 94.5996C88.3184 94.1895 88.4746 93.7891 88.6309 93.3984C88.7871 93.0078 88.9141 92.6074 89.0117 92.1973C89.1289 91.7871 89.1875 91.3574 89.1875 90.9082C89.1875 90.8105 89.1777 90.7031 89.1582 90.5859C89.1582 90.4688 89.1484 90.3613 89.1289 90.2637C89.2852 90.0488 89.3633 89.8145 89.3633 89.5605ZM124.842 88.7988C124.783 88.9746 124.666 89.1016 124.49 89.1797C124.334 89.2383 124.168 89.2871 123.992 89.3262C123.816 89.3652 123.65 89.4336 123.494 89.5312C123.357 89.6094 123.27 89.7461 123.23 89.9414L123.172 89.9707C123.094 89.9707 123.035 89.9512 122.996 89.9121C122.977 89.8535 122.957 89.8047 122.938 89.7656C122.918 89.707 122.889 89.6582 122.85 89.6191C122.83 89.5605 122.791 89.5312 122.732 89.5312C122.518 89.5312 122.303 89.5508 122.088 89.5898C121.893 89.6289 121.697 89.6484 121.502 89.6484C121.209 89.6484 120.945 89.6094 120.711 89.5312C120.574 89.5703 120.496 89.6582 120.477 89.7949C120.477 89.9316 120.418 90.0195 120.301 90.0586C120.203 90.0977 120.086 90.1172 119.949 90.1172C119.812 90.0977 119.676 90.1074 119.539 90.1465L118.602 90.3809C118.289 90.459 117.977 90.498 117.664 90.498C117.488 90.498 117.361 90.4883 117.283 90.4688C116.99 90.7031 116.658 90.8789 116.287 90.9961C115.916 91.0938 115.525 91.1914 115.115 91.2891C114.725 91.3672 114.334 91.4746 113.943 91.6113C113.572 91.748 113.24 91.9629 112.947 92.2559C112.791 92.2168 112.654 92.1973 112.537 92.1973C112.283 92.1973 112.059 92.2559 111.863 92.373C111.668 92.4707 111.463 92.5684 111.248 92.666C111.15 92.7051 111.053 92.7246 110.955 92.7246C110.857 92.7246 110.75 92.7441 110.633 92.7832C110.516 92.8223 110.438 92.8906 110.398 92.9883C110.379 93.0664 110.32 93.1445 110.223 93.2227C110.223 93.9258 110.291 94.6289 110.428 95.332C110.564 96.0156 110.633 96.709 110.633 97.4121V97.5293C110.672 97.8613 110.779 98.1738 110.955 98.4668C111.131 98.7402 111.219 99.0234 111.219 99.3164C111.219 99.4141 111.199 99.5215 111.16 99.6387C111.668 99.7559 112 100.02 112.156 100.43C112.332 100.82 112.469 101.25 112.566 101.719C112.684 102.168 112.83 102.588 113.006 102.979C113.201 103.369 113.572 103.613 114.119 103.711C114.158 103.906 114.188 104.111 114.207 104.326C114.227 104.521 114.236 104.717 114.236 104.912C114.236 105.186 114.207 105.449 114.148 105.703C114.09 105.977 113.973 106.221 113.797 106.436C113.504 106.455 113.289 106.465 113.152 106.465C113.016 106.465 112.811 106.523 112.537 106.641C112.146 106.406 111.795 106.133 111.482 105.82C111.189 105.527 110.906 105.215 110.633 104.883C110.379 104.531 110.125 104.18 109.871 103.828C109.617 103.457 109.344 103.105 109.051 102.773C108.035 103.027 106.99 103.203 105.916 103.301C104.861 103.379 103.807 103.418 102.752 103.418C102.713 103.457 102.654 103.477 102.576 103.477C102.498 103.477 102.42 103.486 102.342 103.506C102.283 103.506 102.225 103.525 102.166 103.564C102.127 103.584 102.117 103.633 102.137 103.711C102 103.633 101.844 103.584 101.668 103.564C101.512 103.525 101.365 103.506 101.229 103.506C101.131 103.506 101.033 103.516 100.936 103.535C100.838 103.535 100.74 103.564 100.643 103.623C99.9004 103.486 99.1777 103.301 98.4746 103.066C97.791 102.812 97.0879 102.607 96.3652 102.451C96.3652 102.295 96.3262 102.188 96.248 102.129C96.1699 102.051 96.1016 101.943 96.043 101.807C95.2227 101.299 94.5293 100.684 93.9629 99.9609C93.416 99.2383 93.1914 98.3594 93.2891 97.3242L93.084 96.9141C93.084 96.6016 93.1523 96.377 93.2891 96.2402C93.2109 96.1035 93.0742 95.9668 92.8789 95.8301C93.0547 95.5566 93.2109 95.2734 93.3477 94.9805C93.4844 94.6875 93.582 94.375 93.6406 94.043C93.6602 93.9453 93.6699 93.8574 93.6699 93.7793C93.6699 93.7012 93.6895 93.6133 93.7285 93.5156C93.7676 93.3984 93.8262 93.2715 93.9043 93.1348C93.9629 92.9785 94.0215 92.8418 94.0801 92.7246C94.3926 92.0605 94.7344 91.4258 95.1055 90.8203C95.4961 90.1953 95.9844 89.6582 96.5703 89.209C96.6094 88.877 96.707 88.6035 96.8633 88.3887C97.0195 88.1543 97.1855 87.9492 97.3613 87.7734C97.5566 87.5781 97.7422 87.3828 97.918 87.1875C98.1133 86.9922 98.2598 86.7578 98.3574 86.4844C98.748 86.1523 99.1387 85.8301 99.5293 85.5176C99.9395 85.2051 100.281 84.834 100.555 84.4043C100.906 84.2871 101.238 84.1406 101.551 83.9648C101.863 83.7695 102.127 83.5254 102.342 83.2324C102.811 83.1934 103.27 83.1055 103.719 82.9688C104.188 82.832 104.676 82.7637 105.184 82.7637C105.398 82.7637 105.652 82.8125 105.945 82.9102C106.258 82.9883 106.492 83.1348 106.648 83.3496C106.668 83.3887 106.678 83.4375 106.678 83.4961L106.707 83.6426C106.727 83.6816 106.746 83.7207 106.766 83.7598C106.805 83.7793 106.863 83.7793 106.941 83.7598C106.941 84.1895 106.893 84.6289 106.795 85.0781C106.697 85.5078 106.443 85.8398 106.033 86.0742C105.779 85.9961 105.506 85.957 105.213 85.957C104.822 85.957 104.461 86.0352 104.129 86.1914C103.816 86.3281 103.504 86.4941 103.191 86.6895C102.898 86.8652 102.596 87.0508 102.283 87.2461C101.971 87.4219 101.639 87.5488 101.287 87.627C101.248 87.7832 101.209 87.9297 101.17 88.0664C101.15 88.1836 101.16 88.3203 101.199 88.4766C101.102 88.4766 101.023 88.4668 100.965 88.4473C100.926 88.4082 100.857 88.3887 100.76 88.3887C100.623 88.3887 100.525 88.4668 100.467 88.623C100.428 88.7793 100.389 88.9062 100.35 89.0039C99.9785 89.1602 99.666 89.3848 99.4121 89.6777C99.1777 89.9512 98.9531 90.2539 98.7383 90.5859C98.543 90.8984 98.3281 91.2012 98.0938 91.4941C97.8594 91.7871 97.5664 92.0117 97.2148 92.168C97.0586 92.793 96.9023 93.4082 96.7461 94.0137C96.6094 94.6191 96.4434 95.2246 96.248 95.8301C96.3066 96.0645 96.3359 96.3086 96.3359 96.5625C96.3359 96.875 96.3066 97.1582 96.248 97.4121C96.3457 97.5684 96.4434 97.7539 96.541 97.9688L96.8926 98.6426C97.0098 98.877 97.127 99.0918 97.2441 99.2871C97.3809 99.4824 97.5078 99.6289 97.625 99.7266C97.8398 99.8828 98.1719 100.029 98.6211 100.166C99.0703 100.283 99.4707 100.488 99.8223 100.781C99.8613 100.781 99.9102 100.781 99.9688 100.781C100.027 100.762 100.076 100.752 100.115 100.752C100.35 100.752 100.604 100.811 100.877 100.928C101.15 101.045 101.326 101.104 101.404 101.104C102.498 101.104 103.689 101.035 104.979 100.898C106.268 100.742 107.459 100.557 108.553 100.342C108.592 100.146 108.611 99.9805 108.611 99.8438C108.611 99.5898 108.572 99.3457 108.494 99.1113C108.416 98.8574 108.289 98.6426 108.113 98.4668C108.113 98.1738 108.113 97.8809 108.113 97.5879C108.133 97.2949 108.143 97.002 108.143 96.709C108.143 96.2207 108.123 95.7031 108.084 95.1562C108.045 94.6094 107.947 94.1016 107.791 93.6328H107.732C107.479 93.6328 107.244 93.7012 107.029 93.8379C106.834 93.9551 106.629 94.0137 106.414 94.0137C106.297 94.0137 106.199 93.9844 106.121 93.9258C105.887 94.1992 105.604 94.4043 105.271 94.541C104.939 94.6777 104.588 94.8047 104.217 94.9219C103.846 95.0195 103.475 95.127 103.104 95.2441C102.752 95.3613 102.43 95.5273 102.137 95.7422C101.98 95.6836 101.834 95.6543 101.697 95.6543C101.561 95.6543 101.424 95.6641 101.287 95.6836C101.17 95.7031 101.033 95.7227 100.877 95.7422C100.467 95.3906 100.262 94.9512 100.262 94.4238C100.262 94.1504 100.301 93.8867 100.379 93.6328C100.477 93.3594 100.604 93.1055 100.76 92.8711C100.857 92.8125 100.975 92.7832 101.111 92.7832C101.248 92.7637 101.385 92.7441 101.521 92.7246C101.658 92.6855 101.766 92.6367 101.844 92.5781C101.941 92.5195 102 92.4121 102.02 92.2559C102.078 92.3145 102.127 92.3438 102.166 92.3438C102.205 92.3438 102.244 92.334 102.283 92.3145C102.322 92.2949 102.361 92.2852 102.4 92.2852C102.439 92.2852 102.469 92.3047 102.488 92.3438C102.527 92.3828 102.547 92.4219 102.547 92.4609C103.387 92.0117 104.246 91.6309 105.125 91.3184C106.004 91.0059 106.893 90.7227 107.791 90.4688C108.709 90.2148 109.627 89.9805 110.545 89.7656C111.463 89.5312 112.371 89.2773 113.27 89.0039C113.406 88.8867 113.553 88.7988 113.709 88.7402C113.865 88.6816 114.002 88.5938 114.119 88.4766C114.256 88.5547 114.422 88.5938 114.617 88.5938C114.891 88.5938 115.184 88.5449 115.496 88.4473C115.828 88.3301 116.102 88.1934 116.316 88.0371C116.395 88.0566 116.463 88.0664 116.521 88.0664H116.727C117.117 88.0664 117.479 88.0078 117.811 87.8906C118.162 87.7734 118.504 87.6172 118.836 87.4219H118.982C119.588 87.4219 120.184 87.3535 120.77 87.2168C121.375 87.0801 121.99 87.0117 122.615 87.0117C123.416 87.0117 124.119 87.2168 124.725 87.627V87.9785C124.725 88.1348 124.725 88.2812 124.725 88.418C124.744 88.5352 124.783 88.6621 124.842 88.7988ZM134.92 88.0371C134.803 88.2129 134.734 88.4082 134.715 88.623C134.695 88.8379 134.686 89.0332 134.686 89.209C134.686 89.4434 134.686 89.6777 134.686 89.9121C134.705 90.127 134.715 90.3418 134.715 90.5566V90.9961C134.676 91.1328 134.617 91.2695 134.539 91.4062C134.461 91.543 134.402 91.6797 134.363 91.8164C134.09 92.5391 133.953 93.2617 133.953 93.9844V94.043C133.855 94.2773 133.758 94.4922 133.66 94.6875C133.582 94.8828 133.504 95.0781 133.426 95.2734C133.348 95.4492 133.289 95.6445 133.25 95.8594C133.211 96.0547 133.201 96.2891 133.221 96.5625C132.947 97.2461 132.586 97.8711 132.137 98.4375C131.688 98.9844 131.248 99.5508 130.818 100.137C130.408 100.293 130.027 100.498 129.676 100.752C129.344 101.006 129.021 101.289 128.709 101.602C128.104 101.797 127.508 102.021 126.922 102.275C126.336 102.529 125.809 102.871 125.34 103.301C124.969 103.34 124.598 103.398 124.227 103.477C123.855 103.555 123.494 103.672 123.143 103.828H122.791C122.615 103.828 122.488 103.789 122.41 103.711C122.156 103.848 121.893 103.945 121.619 104.004C121.346 104.043 121.072 104.062 120.799 104.062C120.447 104.062 120.096 104.043 119.744 104.004C119.412 103.945 119.07 103.887 118.719 103.828C118.523 103.555 118.25 103.35 117.898 103.213C117.547 103.057 117.234 102.91 116.961 102.773C116.395 101.992 115.984 101.24 115.73 100.518C115.477 99.7754 115.213 98.9453 114.939 98.0273C114.979 97.7539 115.047 97.4902 115.145 97.2363C115.242 96.9629 115.281 96.6699 115.262 96.3574C115.613 95.3418 116.072 94.4238 116.639 93.6035C117.225 92.7637 117.889 91.9629 118.631 91.2012C118.631 91.084 118.65 90.9863 118.689 90.9082C118.748 90.8301 118.758 90.7129 118.719 90.5566C118.738 90.5762 118.777 90.5859 118.836 90.5859C118.992 90.5859 119.09 90.5469 119.129 90.4688C119.168 90.3711 119.178 90.2637 119.158 90.1465C119.861 89.6973 120.496 89.1797 121.062 88.5938C121.648 88.0078 122.312 87.5195 123.055 87.1289C123.113 86.9531 123.211 86.8066 123.348 86.6895C123.484 86.5723 123.592 86.4355 123.67 86.2793C124.295 86.1035 124.861 85.8398 125.369 85.4883C125.877 85.1367 126.414 84.8242 126.98 84.5508C127.293 84.375 127.586 84.2578 127.859 84.1992C128.152 84.1211 128.465 84.043 128.797 83.9648C128.914 83.9258 129.021 83.8965 129.119 83.877C129.217 83.8574 129.324 83.8477 129.441 83.8477C129.793 83.8477 130.135 83.916 130.467 84.0527C130.799 84.1699 131.141 84.2285 131.492 84.2285C131.59 84.2285 131.668 84.2285 131.727 84.2285C131.805 84.209 131.883 84.1895 131.961 84.1699C132.293 84.5801 132.713 84.8926 133.221 85.1074C133.338 85.4004 133.475 85.6543 133.631 85.8691C133.807 86.084 133.982 86.2988 134.158 86.5137C134.334 86.709 134.49 86.9336 134.627 87.1875C134.783 87.4219 134.881 87.7051 134.92 88.0371ZM131.99 89.5605C131.99 89.4629 131.98 89.375 131.961 89.2969C131.766 89.2383 131.58 89.1602 131.404 89.0625C131.229 88.9648 131.033 88.916 130.818 88.916C130.682 88.916 130.545 88.9453 130.408 89.0039C130.389 88.8672 130.33 88.7695 130.232 88.7109C130.154 88.6523 130.057 88.6035 129.939 88.5645C129.842 88.5059 129.734 88.4668 129.617 88.4473C129.52 88.4082 129.432 88.3496 129.354 88.2715C129.295 88.1152 129.227 87.959 129.148 87.8027C129.09 87.627 128.973 87.5 128.797 87.4219C128.621 87.5977 128.416 87.7441 128.182 87.8613C127.947 87.959 127.703 88.0566 127.449 88.1543C127.215 88.252 126.98 88.3691 126.746 88.5059C126.531 88.6426 126.346 88.8086 126.189 89.0039H125.662C125.545 89.2188 125.379 89.3848 125.164 89.502C124.949 89.5996 124.764 89.7461 124.607 89.9414C124.295 90.0977 124.002 90.293 123.729 90.5273C123.475 90.7422 123.221 90.9766 122.967 91.2305C122.713 91.4648 122.459 91.709 122.205 91.9629C121.971 92.2168 121.717 92.4512 121.443 92.666C121.189 93.2129 120.906 93.6914 120.594 94.1016C120.301 94.4922 120.018 94.8926 119.744 95.3027C119.49 95.7129 119.266 96.1621 119.07 96.6504C118.895 97.1191 118.807 97.7051 118.807 98.4082V98.7012C118.807 98.7988 118.816 98.8965 118.836 98.9941C119.09 99.2676 119.295 99.5605 119.451 99.873C119.627 100.186 119.91 100.41 120.301 100.547C120.691 100.703 121.102 100.771 121.531 100.752C121.98 100.732 122.41 100.781 122.82 100.898C123.758 100.723 124.656 100.439 125.516 100.049C126.395 99.6387 127.225 99.1504 128.006 98.584C128.123 98.4863 128.26 98.3887 128.416 98.291C128.572 98.1738 128.699 98.0566 128.797 97.9395C128.895 97.8418 128.973 97.7344 129.031 97.6172C129.109 97.5 129.188 97.3926 129.266 97.2949C129.422 97.041 129.598 96.7871 129.793 96.5332C129.988 96.2793 130.193 96.0449 130.408 95.8301C130.506 95.4004 130.633 94.9902 130.789 94.5996C130.945 94.1895 131.102 93.7891 131.258 93.3984C131.414 93.0078 131.541 92.6074 131.639 92.1973C131.756 91.7871 131.814 91.3574 131.814 90.9082C131.814 90.8105 131.805 90.7031 131.785 90.5859C131.785 90.4688 131.775 90.3613 131.756 90.2637C131.912 90.0488 131.99 89.8145 131.99 89.5605Z" fill="white"/>
<rect x="91.9023" y="13.7071" width="112" height="112" transform="rotate(45 91.9023 13.7071)" stroke="white"/>
</svg>
