<svg width="11" height="14" viewBox="0 0 11 14" fill="none" xmlns="http://www.w3.org/2000/svg">
<path d="M10.7083 5.25H9.83332V4.08332C9.83332 1.83176 8.00159 0 5.75 0C3.49841 0 1.66668 1.83176 1.66668 4.08332V5.25H0.791676C0.630457 5.25 0.5 5.38046 0.5 5.54168V12.8334C0.5 13.4768 1.02322 14 1.66668 14H9.83335C10.4768 14 11 13.4768 11 12.8333V5.54168C11 5.38046 10.8695 5.25 10.7083 5.25ZM6.6233 11.3428C6.63241 11.4251 6.60594 11.5077 6.55068 11.5696C6.49542 11.6313 6.41623 11.6667 6.33335 11.6667H5.16668C5.0838 11.6667 5.00461 11.6313 4.94935 11.5696C4.89409 11.5078 4.86759 11.4251 4.87672 11.3428L5.06072 9.68825C4.76193 9.47092 4.58335 9.12712 4.58335 8.75C4.58335 8.10657 5.10657 7.58332 5.75003 7.58332C6.39348 7.58332 6.9167 8.10655 6.9167 8.75C6.9167 9.12712 6.73812 9.47092 6.43934 9.68825L6.6233 11.3428ZM8.08332 5.25H3.41668V4.08332C3.41668 2.79675 4.46342 1.75 5.75 1.75C7.03658 1.75 8.08332 2.79675 8.08332 4.08332V5.25Z" fill="white"/>
</svg>
