<svg width="87" height="86" viewBox="0 0 87 86" fill="none" xmlns="http://www.w3.org/2000/svg">
<path d="M35.378 46.2859C35.378 46.4937 35.3416 46.6651 35.2689 46.8002C35.2066 46.9249 35.1338 47.0704 35.0507 47.2366C35.0299 47.2262 35.0039 47.221 34.9728 47.221C34.9104 47.221 34.8533 47.2366 34.8013 47.2678C34.7494 47.299 34.6974 47.3249 34.6455 47.3457C34.3442 47.6782 34.0324 48.0003 33.7103 48.312C33.3986 48.6237 33.0506 48.8991 32.6661 49.138C32.5622 49.2004 32.4583 49.2627 32.3544 49.3251C32.2505 49.377 32.1414 49.429 32.0271 49.4809C31.9855 49.5017 31.944 49.5225 31.9024 49.5433C31.8713 49.5537 31.8401 49.5692 31.8089 49.59C31.7362 49.6316 31.6583 49.6991 31.5751 49.7926C31.5024 49.8862 31.4141 49.9797 31.3102 50.0732C31.2167 50.1771 31.1128 50.2602 30.9985 50.3225C30.8842 50.3953 30.7595 50.4264 30.6244 50.4161C30.5413 50.468 30.4686 50.5355 30.4062 50.6187C30.3439 50.7018 30.2711 50.7849 30.188 50.868C29.7412 51.0239 29.3308 51.2265 28.9568 51.4759C28.5931 51.7356 28.2139 51.985 27.819 52.224C27.58 52.3798 27.3411 52.5045 27.1021 52.598C27.0501 52.6188 26.9878 52.6344 26.9151 52.6448C26.8527 52.6552 26.7852 52.6708 26.7125 52.6915C26.3696 52.7747 26.0215 52.8422 25.6682 52.8942C25.3253 52.9461 24.9773 52.9721 24.624 52.9721C24.1876 52.9721 23.7668 52.9201 23.3616 52.8162C23.3616 52.7851 23.3512 52.7643 23.3304 52.7539C23.3096 52.7435 23.2836 52.7331 23.2525 52.7227C23.2317 52.7123 23.2109 52.6967 23.1901 52.676C23.1694 52.6656 23.1694 52.6396 23.1901 52.598C22.9615 52.5772 22.7589 52.5201 22.5823 52.4266C22.4161 52.3331 22.307 52.1668 22.255 51.9279C22.2238 51.9486 22.1979 51.9746 22.1771 52.0058C22.1563 52.037 22.1199 52.0473 22.068 52.037C21.9225 51.8291 21.7615 51.6369 21.5848 51.4603C21.4082 51.2837 21.2783 51.0706 21.1952 50.8213C21.1744 50.7693 21.1588 50.7174 21.1484 50.6654C21.1484 50.6239 21.1432 50.5771 21.1328 50.5252C21.0809 50.3797 20.9874 50.307 20.8523 50.307C20.8731 50.2654 20.8835 50.2134 20.8835 50.1511C20.8835 50.1199 20.8783 50.0888 20.8679 50.0576C20.8679 50.0264 20.8679 49.9952 20.8679 49.9641C20.8679 49.9121 20.8835 49.8602 20.9146 49.8082C20.8107 49.5692 20.738 49.3355 20.6965 49.1069C20.6549 48.8679 20.6341 48.6237 20.6341 48.3744C20.6341 48.0523 20.6497 47.7354 20.6809 47.4236C20.712 47.1015 20.7276 46.7794 20.7276 46.4573C20.79 46.3327 20.8367 46.1872 20.8679 46.0209C20.9095 45.8547 20.977 45.7196 21.0705 45.6157C21.0601 45.5534 21.0393 45.5222 21.0082 45.5222C20.977 45.5118 20.9614 45.4807 20.9614 45.4287C20.9614 45.2417 20.9978 45.0391 21.0705 44.8209C21.1432 44.6027 21.1796 44.3793 21.1796 44.1507C21.2731 44.0987 21.3303 44.0208 21.351 43.9169C21.3822 43.813 21.4394 43.7299 21.5225 43.6675V43.5896C21.5225 43.4338 21.5381 43.2779 21.5692 43.122C21.6108 42.9662 21.6472 42.8155 21.6783 42.6701C21.7199 42.5142 21.7511 42.3636 21.7719 42.2181C21.803 42.0622 21.8134 41.9116 21.803 41.7661C21.8238 41.7349 21.8498 41.6778 21.881 41.5947C21.9225 41.5012 21.9589 41.4076 21.99 41.3141C22.0316 41.2102 22.0628 41.1115 22.0836 41.018C22.1147 40.9245 22.1303 40.857 22.1303 40.8154C22.1303 40.753 22.1199 40.6959 22.0991 40.644C22.0784 40.592 22.068 40.5349 22.068 40.4725C22.068 40.4206 22.0836 40.3478 22.1147 40.2543C22.1459 40.1504 22.1719 40.0673 22.1927 40.0049C22.2342 39.8283 22.2706 39.6465 22.3018 39.4595C22.3433 39.262 22.3797 39.075 22.4109 38.8984C22.5044 38.3269 22.5719 37.7554 22.6135 37.184C22.655 36.6021 22.681 36.0203 22.6914 35.4384C22.8369 35.3553 22.9875 35.2773 23.1434 35.2046C23.3096 35.1319 23.4811 35.0955 23.6577 35.0955C23.7096 35.0955 23.7616 35.1007 23.8136 35.1111C23.8655 35.1215 23.9175 35.1371 23.9694 35.1579C24.0214 35.3657 24.1045 35.5319 24.2188 35.6566C24.3331 35.7813 24.437 35.9319 24.5305 36.1086C24.4681 36.2748 24.4266 36.4463 24.4058 36.6229L24.359 37.1528C24.3487 37.3294 24.3279 37.5061 24.2967 37.6827C24.2655 37.849 24.2136 38.01 24.1408 38.1659C24.1616 38.2178 24.172 38.2698 24.172 38.3217V38.4776C24.172 38.623 24.1564 38.7633 24.1253 38.8984C24.1045 39.0334 24.0785 39.1737 24.0473 39.3192C24.0162 39.4543 23.9902 39.5893 23.9694 39.7244C23.9486 39.8595 23.9486 39.9946 23.9694 40.1296C23.9382 40.1816 23.9071 40.2231 23.8759 40.2543C23.8447 40.2751 23.8239 40.3115 23.8136 40.3634L23.7824 40.6595C23.7616 40.7738 23.7408 40.8881 23.72 41.0024C23.7096 41.1063 23.6941 41.2154 23.6733 41.3297C23.6006 41.6414 23.5174 41.9531 23.4239 42.2648C23.3408 42.5766 23.2992 42.8987 23.2992 43.2311V43.3247C23.2057 43.4701 23.133 43.652 23.081 43.8701C23.0291 44.078 23.0135 44.2702 23.0343 44.4468C22.92 44.7481 22.8109 45.0443 22.707 45.3352C22.6031 45.6261 22.5511 45.9274 22.5511 46.2391C22.5511 46.2911 22.5511 46.3482 22.5511 46.4106C22.5615 46.4625 22.5719 46.5145 22.5823 46.5664C22.4992 46.7742 22.4472 46.9872 22.4264 47.2054C22.4057 47.4133 22.3953 47.6211 22.3953 47.8289C22.3953 47.9743 22.4005 48.1458 22.4109 48.3432C22.4316 48.5302 22.4576 48.7276 22.4888 48.9354C22.5303 49.1329 22.5771 49.3251 22.6291 49.5121C22.681 49.6991 22.7382 49.8498 22.8005 49.9641C23.0395 50.3485 23.3512 50.6498 23.7356 50.868C24.1305 51.0966 24.5461 51.2421 24.9825 51.3044C25.1591 51.2421 25.2994 51.2057 25.4033 51.1953C25.5176 51.1849 25.6734 51.1849 25.8708 51.1953C26.0371 51.1122 26.2033 51.0499 26.3696 51.0083C26.5462 50.9667 26.7228 50.92 26.8995 50.868C26.9514 50.8473 27.0034 50.8265 27.0553 50.8057C27.1177 50.7849 27.1696 50.7641 27.2112 50.7434C27.2631 50.7226 27.3203 50.6758 27.3826 50.6031C27.445 50.5304 27.5021 50.468 27.5541 50.4161C27.7723 50.3537 27.9801 50.2654 28.1775 50.1511C28.3749 50.0472 28.5671 49.9381 28.7542 49.8238L29.3308 49.4809C29.5282 49.3666 29.736 49.2679 29.9542 49.1848C30.0374 49.1536 30.0841 49.1121 30.0945 49.0601C30.1153 48.9978 30.1465 48.925 30.188 48.8419C30.2088 48.8627 30.24 48.8731 30.2815 48.8731C30.4062 48.8731 30.4945 48.8367 30.5465 48.764C30.5984 48.6809 30.6608 48.5978 30.7335 48.5146C30.8686 48.4938 30.9985 48.4575 31.1232 48.4055C31.2478 48.3432 31.3413 48.2497 31.4037 48.125C31.6634 48.073 31.892 47.9795 32.0895 47.8445C32.2869 47.7094 32.4791 47.5639 32.6661 47.4081C32.8531 47.2418 33.0402 47.086 33.2272 46.9405C33.4142 46.7846 33.6272 46.66 33.8662 46.5664C33.8974 46.5145 33.9182 46.4677 33.9285 46.4262C33.9389 46.3846 33.9545 46.3379 33.9753 46.2859C34.1519 46.2651 34.2922 46.2184 34.3961 46.1456C34.5 46.0625 34.6195 45.9794 34.7546 45.8963C35.0455 45.9274 35.2533 46.0573 35.378 46.2859ZM43.7006 40.831C43.6383 40.9245 43.6019 41.0284 43.5915 41.1427C43.5812 41.257 43.576 41.3609 43.576 41.4544C43.576 41.5791 43.576 41.7038 43.576 41.8284C43.5864 41.9427 43.5915 42.057 43.5915 42.1713V42.4051C43.5708 42.4778 43.5396 42.5506 43.498 42.6233C43.4565 42.696 43.4253 42.7688 43.4045 42.8415C43.2591 43.2259 43.1863 43.6104 43.1863 43.9948V44.026C43.1344 44.1507 43.0824 44.265 43.0305 44.3689C42.9889 44.4728 42.9473 44.5767 42.9058 44.6806C42.8642 44.7741 42.8331 44.878 42.8123 44.9923C42.7915 45.0962 42.7863 45.2209 42.7967 45.3664C42.6512 45.73 42.459 46.0625 42.22 46.3638C41.981 46.6548 41.7473 46.9561 41.5187 47.2678C41.3005 47.3509 41.0979 47.46 40.9108 47.5951C40.7342 47.7302 40.5628 47.8808 40.3965 48.0471C40.0744 48.151 39.7575 48.2705 39.4458 48.4055C39.1341 48.5406 38.8536 48.7224 38.6042 48.951C38.4068 48.9718 38.2094 49.003 38.0119 49.0445C37.8145 49.0861 37.6223 49.1484 37.4353 49.2316H37.2483C37.1547 49.2316 37.0872 49.2108 37.0456 49.1692C36.9106 49.242 36.7703 49.2939 36.6248 49.3251C36.4794 49.3459 36.3339 49.3562 36.1884 49.3562C36.0014 49.3562 35.8144 49.3459 35.6274 49.3251C35.4507 49.2939 35.2689 49.2627 35.0819 49.2316C34.978 49.0861 34.8325 48.977 34.6455 48.9043C34.4584 48.8211 34.2922 48.7432 34.1467 48.6705C33.8454 48.2549 33.6272 47.8548 33.4921 47.4704C33.3571 47.0756 33.2168 46.634 33.0713 46.1456C33.0921 46.0002 33.1285 45.8599 33.1804 45.7248C33.2324 45.5794 33.2532 45.4235 33.2428 45.2573C33.4298 44.717 33.674 44.2286 33.9753 43.7922C34.287 43.3454 34.6403 42.9194 35.0351 42.5142C35.0351 42.4519 35.0455 42.3999 35.0663 42.3584C35.0975 42.3168 35.1026 42.2545 35.0819 42.1713C35.0923 42.1817 35.113 42.1869 35.1442 42.1869C35.2273 42.1869 35.2793 42.1661 35.3001 42.1246C35.3208 42.0726 35.326 42.0155 35.3157 41.9531C35.6897 41.7142 36.0274 41.4388 36.3287 41.1271C36.6404 40.8154 36.9937 40.5556 37.3885 40.3478C37.4197 40.2543 37.4716 40.1764 37.5444 40.114C37.6171 40.0517 37.6743 39.979 37.7158 39.8958C38.0483 39.8023 38.3496 39.6621 38.6198 39.475C38.8899 39.288 39.1757 39.1218 39.477 38.9763C39.6432 38.8828 39.7991 38.8204 39.9445 38.7893C40.1004 38.7477 40.2666 38.7062 40.4433 38.6646C40.5056 38.6438 40.5628 38.6282 40.6147 38.6178C40.6667 38.6074 40.7238 38.6023 40.7862 38.6023C40.9732 38.6023 41.155 38.6386 41.3317 38.7113C41.5083 38.7737 41.6901 38.8049 41.8771 38.8049C41.9291 38.8049 41.9707 38.8049 42.0018 38.8049C42.0434 38.7945 42.085 38.7841 42.1265 38.7737C42.3031 38.9919 42.5265 39.1581 42.7967 39.2724C42.859 39.4283 42.9318 39.5634 43.0149 39.6777C43.1084 39.7919 43.2019 39.9062 43.2954 40.0205C43.3889 40.1244 43.4721 40.2439 43.5448 40.379C43.6279 40.5037 43.6799 40.6543 43.7006 40.831ZM42.1421 41.6414C42.1421 41.5895 42.1369 41.5427 42.1265 41.5012C42.0226 41.47 41.9239 41.4284 41.8304 41.3765C41.7369 41.3245 41.633 41.2985 41.5187 41.2985C41.4459 41.2985 41.3732 41.3141 41.3005 41.3453C41.2901 41.2726 41.2589 41.2206 41.207 41.1894C41.1654 41.1583 41.1135 41.1323 41.0511 41.1115C40.9992 41.0803 40.942 41.0596 40.8797 41.0492C40.8277 41.0284 40.781 40.9972 40.7394 40.9557C40.7082 40.8725 40.6719 40.7894 40.6303 40.7063C40.5991 40.6128 40.5368 40.5452 40.4433 40.5037C40.3498 40.5972 40.2407 40.6751 40.116 40.7375C39.9913 40.7894 39.8614 40.8414 39.7263 40.8933C39.6017 40.9453 39.477 41.0076 39.3523 41.0803C39.238 41.1531 39.1393 41.2414 39.0562 41.3453H38.7756C38.7133 41.4596 38.625 41.5479 38.5107 41.6103C38.3964 41.6622 38.2977 41.7401 38.2146 41.844C38.0483 41.9272 37.8925 42.0311 37.747 42.1557C37.6119 42.27 37.4768 42.3947 37.3418 42.5298C37.2067 42.6545 37.0716 42.7844 36.9365 42.9194C36.8119 43.0545 36.6768 43.1792 36.5313 43.2935C36.3962 43.5844 36.2456 43.839 36.0793 44.0572C35.9235 44.265 35.7728 44.478 35.6274 44.6962C35.4923 44.9144 35.3728 45.1534 35.2689 45.4131C35.1754 45.6625 35.1286 45.9742 35.1286 46.3482V46.5041C35.1286 46.5561 35.1338 46.608 35.1442 46.66C35.2793 46.8054 35.3884 46.9613 35.4715 47.1275C35.565 47.2938 35.7157 47.4133 35.9235 47.486C36.1313 47.5691 36.3495 47.6055 36.5781 47.5951C36.8171 47.5847 37.0456 47.6107 37.2638 47.673C37.7626 47.5795 38.2405 47.4288 38.6977 47.221C39.1653 47.0028 39.6069 46.7431 40.0225 46.4418C40.0848 46.3898 40.1575 46.3379 40.2407 46.2859C40.3238 46.2236 40.3913 46.1612 40.4433 46.0989C40.4952 46.0469 40.5368 45.9898 40.568 45.9274C40.6095 45.8651 40.6511 45.8079 40.6926 45.756C40.7758 45.6209 40.8693 45.4858 40.9732 45.3508C41.0771 45.2157 41.1862 45.091 41.3005 44.9767C41.3524 44.7481 41.42 44.5299 41.5031 44.3221C41.5862 44.1039 41.6693 43.8909 41.7525 43.6831C41.8356 43.4753 41.9031 43.2623 41.9551 43.0441C42.0174 42.8259 42.0486 42.5973 42.0486 42.3584C42.0486 42.3064 42.0434 42.2493 42.033 42.1869C42.033 42.1246 42.0278 42.0674 42.0174 42.0155C42.1005 41.9012 42.1421 41.7765 42.1421 41.6414ZM61.0161 41.2362C60.985 41.3297 60.9226 41.3973 60.8291 41.4388C60.746 41.47 60.6577 41.496 60.5642 41.5167C60.4706 41.5375 60.3823 41.5739 60.2992 41.6258C60.2265 41.6674 60.1797 41.7401 60.1589 41.844L60.1278 41.8596C60.0862 41.8596 60.055 41.8492 60.0343 41.8284C60.0239 41.7973 60.0135 41.7713 60.0031 41.7505C59.9927 41.7194 59.9771 41.6934 59.9563 41.6726C59.9459 41.6414 59.9252 41.6258 59.894 41.6258C59.7797 41.6258 59.6654 41.6362 59.5511 41.657C59.4472 41.6778 59.3433 41.6882 59.2394 41.6882C59.0835 41.6882 58.9433 41.6674 58.8186 41.6258C58.7458 41.6466 58.7043 41.6934 58.6939 41.7661C58.6939 41.8388 58.6627 41.8856 58.6004 41.9064C58.5484 41.9272 58.4861 41.9375 58.4134 41.9375C58.3406 41.9272 58.2679 41.9324 58.1952 41.9531L57.6964 42.0778C57.5302 42.1194 57.3639 42.1402 57.1977 42.1402C57.1042 42.1402 57.0366 42.135 56.9951 42.1246C56.8392 42.2493 56.6626 42.3428 56.4652 42.4051C56.2678 42.4571 56.0599 42.509 55.8418 42.561C55.6339 42.6025 55.4261 42.6597 55.2183 42.7324C55.0209 42.8051 54.8443 42.9194 54.6884 43.0753C54.6053 43.0545 54.5326 43.0441 54.4702 43.0441C54.3352 43.0441 54.2157 43.0753 54.1118 43.1376C54.0079 43.1896 53.8988 43.2415 53.7845 43.2935C53.7325 43.3143 53.6806 43.3247 53.6286 43.3247C53.5767 43.3247 53.5195 43.335 53.4572 43.3558C53.3948 43.3766 53.3533 43.413 53.3325 43.4649C53.3221 43.5065 53.2909 43.548 53.239 43.5896C53.239 43.9637 53.2753 44.3377 53.3481 44.7118C53.4208 45.0754 53.4572 45.4443 53.4572 45.8183V45.8807C53.478 46.0573 53.5351 46.2236 53.6286 46.3794C53.7221 46.5249 53.7689 46.6755 53.7689 46.8314C53.7689 46.8833 53.7585 46.9405 53.7377 47.0028C54.0079 47.0652 54.1845 47.2054 54.2676 47.4236C54.3611 47.6314 54.4339 47.86 54.4858 48.1094C54.5482 48.3484 54.6261 48.5718 54.7196 48.7796C54.8235 48.9874 55.0209 49.1173 55.3118 49.1692C55.3326 49.2731 55.3482 49.3822 55.3586 49.4965C55.369 49.6004 55.3742 49.7043 55.3742 49.8082C55.3742 49.9537 55.3586 50.094 55.3274 50.229C55.2963 50.3745 55.2339 50.5044 55.1404 50.6187C54.9845 50.6291 54.8703 50.6343 54.7975 50.6343C54.7248 50.6343 54.6157 50.6654 54.4702 50.7278C54.2624 50.6031 54.0754 50.4576 53.9092 50.2914C53.7533 50.1355 53.6026 49.9693 53.4572 49.7926C53.3221 49.6056 53.187 49.4186 53.0519 49.2316C52.9169 49.0341 52.7714 48.8471 52.6156 48.6705C52.0753 48.8056 51.5194 48.8991 50.9479 48.951C50.3868 48.9926 49.8257 49.0134 49.2647 49.0134C49.2439 49.0341 49.2127 49.0445 49.1712 49.0445C49.1296 49.0445 49.088 49.0497 49.0465 49.0601C49.0153 49.0601 48.9841 49.0705 48.953 49.0913C48.9322 49.1017 48.927 49.1277 48.9374 49.1692C48.8646 49.1277 48.7815 49.1017 48.688 49.0913C48.6049 49.0705 48.527 49.0601 48.4542 49.0601C48.4023 49.0601 48.3503 49.0653 48.2984 49.0757C48.2464 49.0757 48.1945 49.0913 48.1425 49.1225C47.7477 49.0497 47.3632 48.951 46.9892 48.8263C46.6255 48.6913 46.2515 48.5822 45.867 48.499C45.867 48.4159 45.8463 48.3588 45.8047 48.3276C45.7631 48.286 45.7268 48.2289 45.6956 48.1562C45.2592 47.886 44.8903 47.5587 44.589 47.1743C44.2981 46.7898 44.1786 46.3223 44.2306 45.7716L44.1215 45.5534C44.1215 45.3871 44.1578 45.2676 44.2306 45.1949C44.189 45.1222 44.1163 45.0495 44.0124 44.9767C44.1059 44.8313 44.189 44.6806 44.2617 44.5247C44.3345 44.3689 44.3864 44.2026 44.4176 44.026C44.428 43.9741 44.4332 43.9273 44.4332 43.8857C44.4332 43.8442 44.4436 43.7974 44.4643 43.7455C44.4851 43.6831 44.5163 43.6156 44.5579 43.5429C44.589 43.4597 44.6202 43.387 44.6514 43.3247C44.8176 42.9714 44.9994 42.6337 45.1969 42.3116C45.4047 41.9791 45.6644 41.6934 45.9761 41.4544C45.9969 41.2778 46.0489 41.1323 46.132 41.018C46.2151 40.8933 46.3034 40.7842 46.3969 40.6907C46.5008 40.5868 46.5996 40.4829 46.6931 40.379C46.797 40.2751 46.8749 40.1504 46.9268 40.0049C47.1347 39.8283 47.3425 39.6569 47.5503 39.4906C47.7685 39.3244 47.9503 39.127 48.0958 38.8984C48.2828 38.836 48.4594 38.7581 48.6257 38.6646C48.7919 38.5607 48.9322 38.4308 49.0465 38.275C49.2958 38.2542 49.54 38.2074 49.779 38.1347C50.0284 38.062 50.2881 38.0256 50.5583 38.0256C50.6726 38.0256 50.8076 38.0516 50.9635 38.1035C51.1297 38.1451 51.2544 38.223 51.3375 38.3373C51.3479 38.3581 51.3531 38.3841 51.3531 38.4152L51.3687 38.4932C51.3791 38.5139 51.3895 38.5347 51.3999 38.5555C51.4207 38.5659 51.4518 38.5659 51.4934 38.5555C51.4934 38.7841 51.4674 39.0179 51.4155 39.2568C51.3635 39.4854 51.2284 39.6621 51.0102 39.7867C50.8752 39.7452 50.7297 39.7244 50.5739 39.7244C50.366 39.7244 50.1738 39.766 49.9972 39.8491C49.8309 39.9218 49.6647 40.0101 49.4985 40.114C49.3426 40.2076 49.1815 40.3063 49.0153 40.4102C48.8491 40.5037 48.6724 40.5712 48.4854 40.6128C48.4646 40.6959 48.4438 40.7738 48.4231 40.8466C48.4127 40.9089 48.4179 40.9816 48.4386 41.0648C48.3867 41.0648 48.3451 41.0596 48.314 41.0492C48.2932 41.0284 48.2568 41.018 48.2049 41.018C48.1321 41.018 48.0802 41.0596 48.049 41.1427C48.0282 41.2258 48.0074 41.2933 47.9867 41.3453C47.7892 41.4284 47.623 41.5479 47.4879 41.7038C47.3632 41.8492 47.2438 42.0103 47.1295 42.1869C47.0256 42.3532 46.9113 42.5142 46.7866 42.6701C46.6619 42.8259 46.506 42.9454 46.319 43.0285C46.2359 43.361 46.1528 43.6883 46.0696 44.0104C45.9969 44.3325 45.9086 44.6546 45.8047 44.9767C45.8359 45.1014 45.8514 45.2313 45.8514 45.3664C45.8514 45.5326 45.8359 45.6833 45.8047 45.8183C45.8566 45.9015 45.9086 46.0002 45.9605 46.1145L46.1476 46.4729C46.2099 46.5976 46.2723 46.7119 46.3346 46.8158C46.4073 46.9197 46.4749 46.9976 46.5372 47.0496C46.6515 47.1327 46.8281 47.2106 47.0671 47.2834C47.3061 47.3457 47.5191 47.4548 47.7061 47.6107C47.7269 47.6107 47.7529 47.6107 47.784 47.6107C47.8152 47.6003 47.8412 47.5951 47.862 47.5951C47.9867 47.5951 48.1217 47.6263 48.2672 47.6886C48.4127 47.7509 48.5062 47.7821 48.5477 47.7821C49.1296 47.7821 49.7634 47.7457 50.4492 47.673C51.1349 47.5899 51.7687 47.4912 52.3506 47.3769C52.3714 47.273 52.3818 47.1847 52.3818 47.1119C52.3818 46.9769 52.361 46.847 52.3194 46.7223C52.2779 46.5872 52.2103 46.4729 52.1168 46.3794C52.1168 46.2236 52.1168 46.0677 52.1168 45.9118C52.1272 45.756 52.1324 45.6001 52.1324 45.4443C52.1324 45.1845 52.122 44.9092 52.1012 44.6183C52.0805 44.3273 52.0285 44.0572 51.9454 43.8078H51.9142C51.7791 43.8078 51.6544 43.8442 51.5402 43.9169C51.4363 43.9792 51.3272 44.0104 51.2129 44.0104C51.1505 44.0104 51.0986 43.9948 51.057 43.9637C50.9323 44.1091 50.7817 44.2182 50.605 44.291C50.4284 44.3637 50.2414 44.4312 50.0439 44.4936C49.8465 44.5455 49.6491 44.6027 49.4517 44.665C49.2647 44.7274 49.0932 44.8157 48.9374 44.93C48.8543 44.8988 48.7763 44.8832 48.7036 44.8832C48.6309 44.8832 48.5581 44.8884 48.4854 44.8988C48.4231 44.9092 48.3503 44.9196 48.2672 44.93C48.049 44.7429 47.9399 44.5092 47.9399 44.2286C47.9399 44.0832 47.9607 43.9429 48.0022 43.8078C48.0542 43.6623 48.1217 43.5273 48.2049 43.4026C48.2568 43.3714 48.3192 43.3558 48.3919 43.3558C48.4646 43.3454 48.5373 43.335 48.6101 43.3247C48.6828 43.3039 48.74 43.2779 48.7815 43.2467C48.8335 43.2156 48.8646 43.1584 48.875 43.0753C48.9062 43.1065 48.9322 43.122 48.953 43.122C48.9737 43.122 48.9945 43.1169 49.0153 43.1065C49.0361 43.0961 49.0569 43.0909 49.0776 43.0909C49.0984 43.0909 49.114 43.1013 49.1244 43.122C49.1452 43.1428 49.1556 43.1636 49.1556 43.1844C49.6024 42.9454 50.0595 42.7428 50.5271 42.5766C50.9947 42.4103 51.4674 42.2596 51.9454 42.1246C52.4337 41.9895 52.9221 41.8648 53.4104 41.7505C53.8988 41.6258 54.3819 41.4908 54.8599 41.3453C54.9326 41.283 55.0105 41.2362 55.0936 41.205C55.1768 41.1739 55.2495 41.1271 55.3118 41.0648C55.3846 41.1063 55.4729 41.1271 55.5768 41.1271C55.7223 41.1271 55.8781 41.1011 56.0444 41.0492C56.221 40.9868 56.3665 40.9141 56.4808 40.831C56.5223 40.8414 56.5587 40.8466 56.5899 40.8466H56.699C56.9068 40.8466 57.099 40.8154 57.2756 40.753C57.4626 40.6907 57.6445 40.6076 57.8211 40.5037H57.899C58.2211 40.5037 58.538 40.4673 58.8498 40.3946C59.1719 40.3219 59.4991 40.2855 59.8316 40.2855C60.2576 40.2855 60.6317 40.3946 60.9538 40.6128V40.7998C60.9538 40.8829 60.9538 40.9609 60.9538 41.0336C60.9642 41.0959 60.985 41.1635 61.0161 41.2362ZM66.3776 40.831C66.3152 40.9245 66.2788 41.0284 66.2685 41.1427C66.2581 41.257 66.2529 41.3609 66.2529 41.4544C66.2529 41.5791 66.2529 41.7038 66.2529 41.8284C66.2633 41.9427 66.2685 42.057 66.2685 42.1713V42.4051C66.2477 42.4778 66.2165 42.5506 66.1749 42.6233C66.1334 42.696 66.1022 42.7688 66.0814 42.8415C65.936 43.2259 65.8632 43.6104 65.8632 43.9948V44.026C65.8113 44.1507 65.7593 44.265 65.7074 44.3689C65.6658 44.4728 65.6243 44.5767 65.5827 44.6806C65.5411 44.7741 65.51 44.878 65.4892 44.9923C65.4684 45.0962 65.4632 45.2209 65.4736 45.3664C65.3281 45.73 65.1359 46.0625 64.8969 46.3638C64.658 46.6548 64.4242 46.9561 64.1956 47.2678C63.9774 47.3509 63.7748 47.46 63.5877 47.5951C63.4111 47.7302 63.2397 47.8808 63.0734 48.0471C62.7513 48.151 62.4344 48.2705 62.1227 48.4055C61.811 48.5406 61.5305 48.7224 61.2811 48.951C61.0837 48.9718 60.8863 49.003 60.6888 49.0445C60.4914 49.0861 60.2992 49.1484 60.1122 49.2316H59.9252C59.8316 49.2316 59.7641 49.2108 59.7225 49.1692C59.5875 49.242 59.4472 49.2939 59.3017 49.3251C59.1563 49.3459 59.0108 49.3562 58.8653 49.3562C58.6783 49.3562 58.4913 49.3459 58.3043 49.3251C58.1276 49.2939 57.9458 49.2627 57.7588 49.2316C57.6549 49.0861 57.5094 48.977 57.3224 48.9043C57.1353 48.8211 56.9691 48.7432 56.8236 48.6705C56.5223 48.2549 56.3041 47.8548 56.169 47.4704C56.034 47.0756 55.8937 46.634 55.7482 46.1456C55.769 46.0002 55.8054 45.8599 55.8573 45.7248C55.9093 45.5794 55.9301 45.4235 55.9197 45.2573C56.1067 44.717 56.3509 44.2286 56.6522 43.7922C56.9639 43.3454 57.3172 42.9194 57.712 42.5142C57.712 42.4519 57.7224 42.3999 57.7432 42.3584C57.7744 42.3168 57.7796 42.2545 57.7588 42.1713C57.7692 42.1817 57.7899 42.1869 57.8211 42.1869C57.9042 42.1869 57.9562 42.1661 57.977 42.1246C57.9977 42.0726 58.0029 42.0155 57.9926 41.9531C58.3666 41.7142 58.7043 41.4388 59.0056 41.1271C59.3173 40.8154 59.6706 40.5556 60.0654 40.3478C60.0966 40.2543 60.1485 40.1764 60.2213 40.114C60.294 40.0517 60.3512 39.979 60.3927 39.8958C60.7252 39.8023 61.0265 39.6621 61.2967 39.475C61.5668 39.288 61.8526 39.1218 62.1539 38.9763C62.3201 38.8828 62.476 38.8204 62.6214 38.7893C62.7773 38.7477 62.9435 38.7062 63.1202 38.6646C63.1825 38.6438 63.2397 38.6282 63.2916 38.6178C63.3436 38.6074 63.4007 38.6023 63.4631 38.6023C63.6501 38.6023 63.8319 38.6386 64.0086 38.7113C64.1852 38.7737 64.367 38.8049 64.554 38.8049C64.606 38.8049 64.6476 38.8049 64.6787 38.8049C64.7203 38.7945 64.7619 38.7841 64.8034 38.7737C64.9801 38.9919 65.2034 39.1581 65.4736 39.2724C65.5359 39.4283 65.6087 39.5634 65.6918 39.6777C65.7853 39.7919 65.8788 39.9062 65.9723 40.0205C66.0658 40.1244 66.149 40.2439 66.2217 40.379C66.3048 40.5037 66.3568 40.6543 66.3776 40.831ZM64.819 41.6414C64.819 41.5895 64.8138 41.5427 64.8034 41.5012C64.6995 41.47 64.6008 41.4284 64.5073 41.3765C64.4138 41.3245 64.3099 41.2985 64.1956 41.2985C64.1228 41.2985 64.0501 41.3141 63.9774 41.3453C63.967 41.2726 63.9358 41.2206 63.8839 41.1894C63.8423 41.1583 63.7904 41.1323 63.728 41.1115C63.6761 41.0803 63.6189 41.0596 63.5566 41.0492C63.5046 41.0284 63.4579 40.9972 63.4163 40.9557C63.3851 40.8725 63.3488 40.7894 63.3072 40.7063C63.276 40.6128 63.2137 40.5452 63.1202 40.5037C63.0267 40.5972 62.9176 40.6751 62.7929 40.7375C62.6682 40.7894 62.5383 40.8414 62.4032 40.8933C62.2786 40.9453 62.1539 41.0076 62.0292 41.0803C61.9149 41.1531 61.8162 41.2414 61.7331 41.3453H61.4525C61.3902 41.4596 61.3019 41.5479 61.1876 41.6103C61.0733 41.6622 60.9746 41.7401 60.8915 41.844C60.7252 41.9272 60.5694 42.0311 60.4239 42.1557C60.2888 42.27 60.1537 42.3947 60.0187 42.5298C59.8836 42.6545 59.7485 42.7844 59.6134 42.9194C59.4888 43.0545 59.3537 43.1792 59.2082 43.2935C59.0731 43.5844 58.9225 43.839 58.7562 44.0572C58.6004 44.265 58.4497 44.478 58.3043 44.6962C58.1692 44.9144 58.0497 45.1534 57.9458 45.4131C57.8523 45.6625 57.8055 45.9742 57.8055 46.3482V46.5041C57.8055 46.5561 57.8107 46.608 57.8211 46.66C57.9562 46.8054 58.0653 46.9613 58.1484 47.1275C58.2419 47.2938 58.3926 47.4133 58.6004 47.486C58.8082 47.5691 59.0264 47.6055 59.255 47.5951C59.494 47.5847 59.7225 47.6107 59.9407 47.673C60.4395 47.5795 60.9174 47.4288 61.3746 47.221C61.8422 47.0028 62.2838 46.7431 62.6994 46.4418C62.7617 46.3898 62.8344 46.3379 62.9176 46.2859C63.0007 46.2236 63.0682 46.1612 63.1202 46.0989C63.1721 46.0469 63.2137 45.9898 63.2449 45.9274C63.2864 45.8651 63.328 45.8079 63.3695 45.756C63.4527 45.6209 63.5462 45.4858 63.6501 45.3508C63.754 45.2157 63.8631 45.091 63.9774 44.9767C64.0293 44.7481 64.0969 44.5299 64.18 44.3221C64.2631 44.1039 64.3462 43.8909 64.4294 43.6831C64.5125 43.4753 64.58 43.2623 64.632 43.0441C64.6943 42.8259 64.7255 42.5973 64.7255 42.3584C64.7255 42.3064 64.7203 42.2493 64.7099 42.1869C64.7099 42.1246 64.7047 42.0674 64.6943 42.0155C64.7774 41.9012 64.819 41.7765 64.819 41.6414Z" fill="white"/>
<rect x="43.4941" y="0.823802" width="59.5823" height="59.5823" transform="rotate(45 43.4941 0.823802)" stroke="white" stroke-width="0.531985"/>
</svg>
