<svg width="8" height="14" viewBox="0 0 8 14" fill="none" xmlns="http://www.w3.org/2000/svg">
<path d="M6.90919 0H1.0188C0.455069 0 0 0.457109 0 1.01982V12.9812C0 13.5434 0.455069 14 1.0188 14H6.90919C7.4719 14 7.92799 13.5434 7.92799 12.9812V1.01982C7.92799 0.457109 7.4719 0 6.90919 0ZM2.51053 0.619343H5.41848C5.49195 0.619343 5.55164 0.729029 5.55164 0.864733C5.55164 1.00044 5.49195 1.11063 5.41848 1.11063H2.51053C2.43656 1.11063 2.37789 1.00044 2.37789 0.864733C2.37789 0.729029 2.43656 0.619343 2.51053 0.619343ZM3.96451 12.9934C3.60586 12.9934 3.31404 12.7016 3.31404 12.3425C3.31404 11.9833 3.60586 11.6925 3.96451 11.6925C4.32213 11.6925 4.61395 11.9833 4.61395 12.3425C4.61395 12.7016 4.32213 12.9934 3.96451 12.9934ZM7.16478 10.7645H0.76372V1.72079H7.16478V10.7645Z" fill="white"/>
</svg>
