<svg width="64" height="64" viewBox="0 0 64 64" fill="none" xmlns="http://www.w3.org/2000/svg">
<path d="M54.5894 9.35574C42.1168 -3.11808 21.824 -3.11808 9.35385 9.35272C-3.11875 21.8235 -3.11755 42.1168 9.35506 54.59C21.824 67.0602 42.1168 67.0602 54.5882 54.5876C67.0596 42.1168 67.059 21.8247 54.5894 9.35574ZM51.0992 51.0999C40.5523 61.6469 23.3904 61.6481 12.8428 51.1011C2.2934 40.5523 2.2946 23.3886 12.8428 12.8417C23.3898 2.29528 40.551 2.29408 51.1004 12.8429C61.6474 23.3898 61.6462 40.5535 51.0992 51.0999ZM46.4328 44.6146C46.8296 45.5316 46.4075 46.5957 45.4911 46.9918C44.5741 47.3897 43.51 46.9665 43.1133 46.0501C41.3692 42.0174 37.2472 39.4111 32.6104 39.4111C27.8668 39.4111 23.7195 42.0149 22.0465 46.0453C21.7577 46.741 21.0843 47.1612 20.3759 47.1612C20.1444 47.1612 19.9099 47.1166 19.6826 47.0226C18.7602 46.6391 18.3231 45.5804 18.7059 44.6586C20.9426 39.2736 26.4012 35.7943 32.6104 35.7943C38.6899 35.7943 44.1159 39.2561 46.4328 44.6146ZM20.0401 23.3145C20.0401 21.2502 21.7143 19.5759 23.7786 19.5759C25.8423 19.5759 27.5165 21.2496 27.5165 23.3145C27.5165 25.38 25.8423 27.0536 23.7786 27.0536C21.7143 27.0536 20.0401 25.38 20.0401 23.3145ZM36.9916 23.3145C36.9916 21.2502 38.667 19.5759 40.7313 19.5759C42.795 19.5759 44.4692 21.2496 44.4692 23.3145C44.4692 25.38 42.7956 27.0536 40.7313 27.0536C38.667 27.0536 36.9916 25.38 36.9916 23.3145Z" fill="#FD5086"/>
</svg>
