<svg width="186" height="186" viewBox="0 0 186 186" fill="none" xmlns="http://www.w3.org/2000/svg">
<circle opacity="0.2" cx="93" cy="93" r="93" fill="white"/>
<path d="M123.079 61.8673C105.925 44.7116 78.0154 44.7116 60.8647 61.8632C43.7107 79.0147 43.7123 106.925 60.8664 124.08C78.0154 141.23 105.925 141.23 123.077 124.076C140.23 106.925 140.229 79.0164 123.079 61.8673ZM118.279 119.28C103.773 133.785 80.1696 133.787 65.6632 119.281C51.1542 104.773 51.1559 81.1673 65.6632 66.6616C80.1688 52.1568 103.771 52.1551 118.28 66.6633C132.786 81.1689 132.784 104.775 118.279 119.28ZM111.861 110.36C112.406 111.621 111.826 113.085 110.566 113.63C109.305 114.177 107.841 113.595 107.295 112.334C104.897 106.788 99.2275 103.204 92.8503 103.204C86.3263 103.204 80.6224 106.785 78.3214 112.328C77.9242 113.285 76.998 113.863 76.0238 113.863C75.7053 113.863 75.3828 113.801 75.0702 113.672C73.8016 113.145 73.2004 111.688 73.7269 110.421C76.8032 103.014 84.3106 98.2293 92.8503 98.2293C101.212 98.2293 108.674 102.99 111.861 110.36ZM75.5619 81.0653C75.5619 78.2262 77.8645 75.9235 80.7036 75.9235C83.5419 75.9235 85.8445 78.2253 85.8445 81.0653C85.8445 83.906 83.5419 86.2078 80.7036 86.2078C77.8645 86.2078 75.5619 83.906 75.5619 81.0653ZM98.8759 81.0653C98.8759 78.2262 101.18 75.9235 104.019 75.9235C106.858 75.9235 109.16 78.2253 109.16 81.0653C109.16 83.906 106.858 86.2078 104.019 86.2078C101.18 86.2078 98.8759 83.906 98.8759 81.0653Z" fill="white"/>
</svg>
