<svg width="64" height="64" viewBox="0 0 64 64" fill="none" xmlns="http://www.w3.org/2000/svg">
<path d="M54.5894 9.35574C42.1168 -3.11808 21.824 -3.11808 9.35385 9.35272C-3.11875 21.8235 -3.11755 42.1168 9.35506 54.59C21.824 67.0602 42.1168 67.0602 54.5882 54.5876C67.0596 42.1168 67.059 21.8247 54.5894 9.35574ZM51.0992 51.0999C40.5523 61.6469 23.3904 61.6481 12.8428 51.1011C2.2934 40.5523 2.2946 23.3886 12.8428 12.8417C23.3898 2.29528 40.551 2.29408 51.1004 12.8429C61.6474 23.3898 61.6462 40.5535 51.0992 51.0999ZM20.0401 23.3145C20.0401 21.2502 21.7143 19.5759 23.7786 19.5759C25.8423 19.5759 27.5165 21.2496 27.5165 23.3145C27.5165 25.38 25.8423 27.0536 23.7786 27.0536C21.7143 27.0536 20.0401 25.38 20.0401 23.3145ZM36.9916 23.3145C36.9916 21.2502 38.667 19.5759 40.7313 19.5759C42.795 19.5759 44.4692 21.2496 44.4692 23.3145C44.4692 25.38 42.7956 27.0536 40.7313 27.0536C38.667 27.0536 36.9916 25.38 36.9916 23.3145Z" fill="#FD5086"/>
<path d="M18.6581 37.1697C17.7417 37.5658 17.3197 38.6299 17.7164 39.5469C20.0333 44.9054 25.4593 48.3672 31.5389 48.3672C37.7481 48.3672 43.2066 44.8879 45.4434 39.5029C45.8262 38.5811 45.3891 37.5224 44.4667 37.1389C44.2394 37.0449 44.0049 37.0003 43.7734 37.0003C43.065 37.0003 42.3915 37.4205 42.1028 38.1162C40.4297 42.1466 36.2824 44.7504 31.5389 44.7504C26.9021 44.7504 22.7801 42.1441 21.0359 38.1114C20.6392 37.195 19.5751 36.7718 18.6581 37.1697Z" fill="#FD5086"/>
</svg>
