<svg width="11" height="15" viewBox="0 0 11 15" fill="none" xmlns="http://www.w3.org/2000/svg">
<path d="M5.49956 7.073C7.10751 7.073 8.41114 5.48967 8.41114 3.53652C8.41114 1.58333 7.98314 0 5.49956 0C3.01597 0 2.58789 1.58333 2.58789 3.53652C2.58789 5.48967 3.89152 7.073 5.49956 7.073Z" fill="white"/>
<path d="M10.9924 12.3301C10.9385 8.92769 10.4942 7.95818 7.09374 7.34448C7.09374 7.34448 6.61508 7.95442 5.49942 7.95442C4.38376 7.95442 3.90502 7.34448 3.90502 7.34448C0.541715 7.95148 0.0703279 8.90661 0.00834678 12.2196C0.00326433 12.4901 0.000909057 12.5043 0 12.4729C0.000206604 12.5318 0.000454436 12.6406 0.000454436 12.8304C0.000454436 12.8304 0.81001 14.4624 5.49942 14.4624C10.1887 14.4624 10.9984 12.8304 10.9984 12.8304C10.9984 12.7085 10.9985 12.6237 10.9986 12.566C10.9977 12.5854 10.9959 12.5478 10.9924 12.3301Z" fill="white"/>
</svg>
