<svg width="20" height="26" viewBox="0 0 20 26" fill="none" xmlns="http://www.w3.org/2000/svg">
<path d="M9.88688 12.7157C12.7776 12.7157 15.1213 9.86922 15.1213 6.35789C15.1213 2.84648 14.3518 0 9.88688 0C5.42194 0 4.65234 2.84648 4.65234 6.35789C4.65234 9.86922 6.99598 12.7157 9.88688 12.7157Z" fill="#FD5086"/>
<path d="M0.00102933 22.4235C0.000137904 22.2094 -0.000753524 22.3632 0.00102933 22.4235V22.4235Z" fill="#FD5086"/>
<path d="M19.7734 22.5906C19.7763 22.532 19.7744 22.184 19.7734 22.5906V22.5906Z" fill="#FD5086"/>
<path d="M19.762 22.1667C19.6651 16.0499 18.8662 14.3069 12.753 13.2036C12.753 13.2036 11.8925 14.3001 9.88675 14.3001C7.88104 14.3001 7.02037 13.2036 7.02037 13.2036C0.973885 14.2949 0.126434 16.012 0.0150057 21.968C0.00586854 22.4543 0.00163428 22.4799 0 22.4234C0.000371428 22.5292 0.000816977 22.7249 0.000816977 23.0661C0.000816977 23.0661 1.45622 26.0001 9.88675 26.0001C18.3171 26.0001 19.7727 23.0661 19.7727 23.0661C19.7727 22.8469 19.7728 22.6944 19.7731 22.5907C19.7714 22.6256 19.7682 22.558 19.762 22.1667Z" fill="#FD5086"/>
</svg>
