<svg width="15" height="10" viewBox="0 0 15 10" fill="none" xmlns="http://www.w3.org/2000/svg">
<path d="M14.8327 4.24388C14.0513 2.96599 13.0007 1.9392 11.681 1.16356C10.3613 0.387881 8.96764 0 7.5 0C6.03236 0 4.63868 0.387735 3.31892 1.16356C1.99913 1.9392 0.948593 2.96599 0.167349 4.24388C0.0557927 4.43917 0 4.6317 0 4.82148C0 5.01126 0.0557927 5.20379 0.167349 5.39902C0.948593 6.67698 1.99913 7.70385 3.31892 8.47932C4.63868 9.25508 6.03236 9.64267 7.5 9.64267C8.96767 9.64267 10.3613 9.25637 11.681 8.48354C13.0007 7.71068 14.0515 6.68246 14.8327 5.39902C14.9442 5.20379 15 5.01135 15 4.82148C15 4.6317 14.9442 4.43917 14.8327 4.24388ZM5.7044 1.9545C6.20381 1.4551 6.80228 1.2053 7.49991 1.2053C7.61147 1.2053 7.7064 1.24447 7.78456 1.32255C7.86261 1.40065 7.90184 1.49556 7.90184 1.60714C7.90184 1.71881 7.86261 1.81366 7.78474 1.89165C7.70669 1.96984 7.6117 2.00889 7.50012 2.00889C7.02024 2.00889 6.60995 2.17917 6.2696 2.5195C5.92913 2.86003 5.75899 3.27013 5.75899 3.75001C5.75899 3.86175 5.71982 3.95653 5.64175 4.0347C5.56356 4.11292 5.46874 4.15194 5.35716 4.15194C5.24548 4.15194 5.15064 4.11283 5.07247 4.0347C4.99428 3.95653 4.95523 3.86163 4.95523 3.75001C4.95523 3.05253 5.20502 2.45394 5.7044 1.9545ZM11.1371 7.55459C10.0181 8.23243 8.80584 8.57155 7.5 8.57155C6.19419 8.57155 4.98188 8.23264 3.86304 7.55459C2.74419 6.87655 1.81366 5.96554 1.0715 4.82148C1.9197 3.50447 2.98275 2.51947 4.26065 1.8667C3.92027 2.44696 3.75001 3.07481 3.75001 3.74999C3.75001 4.78246 4.11699 5.66532 4.85074 6.39925C5.58449 7.13317 6.46767 7.49997 7.5 7.49997C8.53241 7.49997 9.41533 7.13296 10.1493 6.39925C10.8832 5.66553 11.25 4.78246 11.25 3.74999C11.25 3.07481 11.0797 2.44688 10.7393 1.8667C12.0172 2.51947 13.0803 3.50456 13.9284 4.82148C13.1864 5.96554 12.256 6.87655 11.1371 7.55459Z" fill="white"/>
</svg>
