<svg width="19" height="19" viewBox="0 0 19 19" fill="none" xmlns="http://www.w3.org/2000/svg">
<path d="M9.5 19C4.26163 19 0 14.7384 0 9.5C0 4.26163 4.26163 0 9.5 0C14.7384 0 19 4.26163 19 9.5C19 14.7384 14.7384 19 9.5 19ZM9.5 1.3571C5.01006 1.3571 1.3571 5.01006 1.3571 9.5C1.3571 13.9899 5.01006 17.6429 9.5 17.6429C13.9899 17.6429 17.6429 13.9899 17.6429 9.5C17.6429 5.01006 13.9899 1.3571 9.5 1.3571Z" fill="#FD5086"/>
<path d="M12.892 13.5715C12.7184 13.5715 12.5447 13.5053 12.4122 13.3726L5.62658 6.58698C5.36145 6.32185 5.36145 5.89249 5.62658 5.6275C5.89157 5.36252 6.32108 5.36237 6.58606 5.6275L13.3717 12.4132C13.6368 12.6783 13.6368 13.1077 13.3717 13.3726C13.2392 13.5053 13.0657 13.5715 12.892 13.5715Z" fill="#FD5086"/>
<path d="M6.10625 13.5716C5.93259 13.5716 5.75907 13.5053 5.62658 13.3727C5.36145 13.1077 5.36145 12.6782 5.62658 12.4132L12.4122 5.62756C12.6774 5.36243 13.1067 5.36243 13.3717 5.62756C13.6367 5.89254 13.6368 6.32205 13.3717 6.58704L6.58606 13.3727C6.45357 13.5053 6.27991 13.5716 6.10625 13.5716Z" fill="#FD5086"/>
</svg>
